<?xml version="1.0" encoding="UTF-8" standalone="no"?>
<!-- Generator: Adobe Illustrator 24.1.0, SVG Export Plug-In . SVG Version: 6.00 Build 0)  -->

<svg
   xmlns:dc="http://purl.org/dc/elements/1.1/"
   xmlns:cc="http://creativecommons.org/ns#"
   xmlns:rdf="http://www.w3.org/1999/02/22-rdf-syntax-ns#"
   xmlns:svg="http://www.w3.org/2000/svg"
   xmlns="http://www.w3.org/2000/svg"
   xmlns:sodipodi="http://sodipodi.sourceforge.net/DTD/sodipodi-0.dtd"
   xmlns:inkscape="http://www.inkscape.org/namespaces/inkscape"
   version="1.1"
   id="Layer_1"
   x="0px"
   y="0px"
   viewBox="0 0 1100 450"
   style="enable-background:new 0 0 1100 450;"
   xml:space="preserve"
   sodipodi:docname="annif-RGB-white.svg"
   inkscape:version="0.92.3 (2405546, 2018-03-11)"><metadata
   id="metadata100"><rdf:RDF><cc:Work
       rdf:about=""><dc:format>image/svg+xml</dc:format><dc:type
         rdf:resource="http://purl.org/dc/dcmitype/StillImage" /><dc:title /></cc:Work></rdf:RDF></metadata><defs
   id="defs98">
	
	
	
	
	
	

		
		
	</defs><sodipodi:namedview
   pagecolor="#ffffff"
   bordercolor="#666666"
   borderopacity="1"
   objecttolerance="10"
   gridtolerance="10"
   guidetolerance="10"
   inkscape:pageopacity="0"
   inkscape:pageshadow="2"
   inkscape:window-width="1311"
   inkscape:window-height="744"
   id="namedview96"
   showgrid="false"
   inkscape:zoom="0.51818182"
   inkscape:cx="322.2807"
   inkscape:cy="225"
   inkscape:window-x="55"
   inkscape:window-y="24"
   inkscape:window-maximized="1"
   inkscape:current-layer="Layer_1" />
<style
   type="text/css"
   id="style75">
	.st0{fill:#343260;}
	.st1{fill:#5DBE66;}
</style>
<path
   style="fill:#ffffff;fill-opacity:1"
   inkscape:connector-curvature="0"
   id="path77"
   d="m 435.47,173.58 c -25.01,0 -46.32,7.81 -60.73,22.11 v -20.06 h -45.31 v 187.42 h 47.37 v -94.73 c 0,-33.59 17.77,-52.85 48.74,-52.85 26.96,0 41.2,15.91 41.2,46 v 101.58 h 47.37 V 255.99 c 0,-51.6 -29.4,-82.41 -78.64,-82.41"
   class="st0" /><path
   style="fill:#ffffff;fill-opacity:1"
   inkscape:connector-curvature="0"
   id="path79"
   d="m 670.02,173.58 c -25.01,0 -46.32,7.81 -60.72,22.11 v -20.06 h -45.31 v 187.42 h 47.36 v -94.73 c 0,-33.59 17.77,-52.85 48.74,-52.85 26.96,0 41.2,15.91 41.2,46 v 101.58 h 47.37 V 255.99 c 0.01,-51.6 -29.39,-82.41 -78.64,-82.41"
   class="st0" /><path
   style="fill:#ffffff;fill-opacity:1"
   inkscape:connector-curvature="0"
   id="path81"
   d="m 945.21,168.34 c 0,-18.28 8.11,-27.17 24.77,-27.17 7.82,0 15.61,2.52 21.95,7.1 l 2.43,1.75 13.64,-36.62 -1.42,-1.02 c -9.34,-6.68 -23.43,-10.36 -39.67,-10.36 -42.6,0 -68.02,24.54 -68.02,65.63 v 195.41 h 47.36 V 215.82 h 49.31 v -38.81 h -50.34 v -8.67 z"
   class="st0" /><rect
   style="fill:#ffffff;fill-opacity:1"
   id="rect83"
   height="187.42"
   width="47.360001"
   class="st0"
   y="175.64"
   x="798.54999" /><path
   class="st0"
   d="m 179,324.26 c -30.51,0 -51.82,-22.58 -51.82,-54.9 0,-32.33 21.31,-54.91 51.82,-54.91 30.71,0 52.16,22.58 52.16,54.91 0,32.31 -21.45,54.9 -52.16,54.9 m 51.47,-129.72 c -14.38,-13.73 -33.7,-20.96 -56.27,-20.96 -55.78,0 -94.74,39.38 -94.74,95.77 0,56.58 38.96,96.1 94.74,96.1 23.98,0 44.01,-7.7 58.33,-22.35 v 19.95 h 45.31 V 175.64 h -47.37 z"
   id="path85"
   inkscape:connector-curvature="0"
   style="fill:#ffffff;fill-opacity:1" /><path
   style="fill:#cccccc;fill-opacity:1"
   inkscape:connector-curvature="0"
   id="path91"
   d="m 791.9,119.55 c 1.73,4 4.11,7.52 7.14,10.55 3.03,3.03 6.54,5.41 10.55,7.14 4,1.73 8.27,2.59 12.82,2.59 4.54,0 8.81,-0.86 12.82,-2.59 4,-1.73 7.51,-4.11 10.55,-7.14 3.03,-3.03 5.41,-6.54 7.14,-10.55 1.73,-4 2.6,-8.27 2.6,-12.82 0,-4.54 -0.87,-8.81 -2.6,-12.82 -1.73,-4 -4.11,-7.51 -7.14,-10.55 -3.03,-3.03 -6.55,-5.4 -10.55,-7.14 -4.01,-1.72 -8.28,-2.59 -12.82,-2.59 -4.54,0 -8.82,0.87 -12.82,2.59 -4.01,1.74 -7.52,4.11 -10.55,7.14 -3.03,3.03 -5.41,6.55 -7.14,10.55 -1.74,4 -2.6,8.27 -2.6,12.82 0,4.55 0.86,8.83 2.6,12.82"
   class="st1" />
</svg>