<?xml version="1.0" encoding="UTF-8" standalone="no"?>
<svg
   xmlns:dc="http://purl.org/dc/elements/1.1/"
   xmlns:cc="http://creativecommons.org/ns#"
   xmlns:rdf="http://www.w3.org/1999/02/22-rdf-syntax-ns#"
   xmlns:svg="http://www.w3.org/2000/svg"
   xmlns="http://www.w3.org/2000/svg"
   xmlns:sodipodi="http://sodipodi.sourceforge.net/DTD/sodipodi-0.dtd"
   xmlns:inkscape="http://www.inkscape.org/namespaces/inkscape"
   width="17"
   height="14.92114"
   class="bi bi-clipboard"
   viewBox="0 0 17 14.92114"
   version="1.1"
   id="svg6"
   sodipodi:docname="clipboard-label-http.svg"
   inkscape:version="0.92.3 (2405546, 2018-03-11)"
   style="fill:currentColor">
  <metadata
     id="metadata12">
    <rdf:RDF>
      <cc:Work
         rdf:about="">
        <dc:format>image/svg+xml</dc:format>
        <dc:type
           rdf:resource="http://purl.org/dc/dcmitype/StillImage" />
        <dc:title />
      </cc:Work>
    </rdf:RDF>
  </metadata>
  <defs
     id="defs10" />
  <sodipodi:namedview
     pagecolor="#ffffff"
     bordercolor="#666666"
     borderopacity="1"
     objecttolerance="10"
     gridtolerance="10"
     guidetolerance="10"
     inkscape:pageopacity="0"
     inkscape:pageshadow="2"
     inkscape:window-width="1855"
     inkscape:window-height="1056"
     id="namedview8"
     showgrid="true"
     inkscape:zoom="41.7193"
     inkscape:cx="5.3912273"
     inkscape:cy="6.6242227"
     inkscape:window-x="65"
     inkscape:window-y="24"
     inkscape:window-maximized="1"
     inkscape:current-layer="svg6"
     fit-margin-top="0"
     fit-margin-left="0"
     fit-margin-right="1"
     fit-margin-bottom="0">
    <inkscape:grid
       type="xygrid"
       id="grid6286"
       originx="1"
       originy="1.5295533e-06" />
  </sodipodi:namedview>
  <path
     style="fill:#dcdcdc;fill-opacity:1;stroke:#006288;stroke-width:0;stroke-miterlimit:4;stroke-dasharray:none;stroke-opacity:1"
     d="M 2.995368,1.3903716 H 15.999999 V 14.921139 h -13.004631 0.0046 l 3,-4 -3,-4.0000004 z"
     id="rect5485"
     inkscape:connector-curvature="0"
     sodipodi:nodetypes="cccccccc" />
  <path
     style="fill:#8db3f1;fill-opacity:1;stroke:#bfeaf4;stroke-width:0;stroke-miterlimit:4;stroke-dasharray:none;stroke-opacity:1"
     d="m 7.095601,5e-7 v 2.7721931 h 4.804166 V 5e-7 Z"
     id="rect5487"
     inkscape:connector-curvature="0" />
  <path
     style="fill:#808080;fill-opacity:1;stroke:#bfeaf4;stroke-width:0;stroke-miterlimit:4;stroke-dasharray:none;stroke-opacity:1"
     d="m 2,6.9211378 3,4.0000002 -3,4 v -2 L 5e-7,12.921137 V 8.9211367 L 2,8.9211378"
     id="rect6223"
     inkscape:connector-curvature="0"
     sodipodi:nodetypes="ccccccc" />
  <g
     id="g1950"
     transform="matrix(8.1566429e-4,0,0,-8.1566429e-4,3.351714,13.19725)"
     style="fill:#000000;stroke:none">
    <path
       id="path1948"
       d="M 8570,10757 C 7682,9604 6952,8662 6949,8663 c -4,1 -492,632 -1084,1402 -592,770 -1084,1408 -1094,1419 -15,17 -16,-138 -21,-2200 l -5,-2219 -854,1120 c -470,616 -856,1122 -858,1124 -1,2 -3,-1385 -3,-3082 V 3140 h 445 445 l 2,1768 3,1768 412,-540 413,-541 V 4368 3140 h 445 445 l 2,641 3,641 489,-641 489,-641 h 444 443 l 2,1663 3,1662 419,-545 c 230,-300 422,-549 426,-553 4,-5 216,264 471,598 l 464,607 3,-1716 2,-1716 h 445 445 v 2301 2300 l 443,579 442,579 3,-2880 2,-2879 h 445 445 v 4190 c 0,2305 -2,4190 -4,4190 -2,0 -402,-520 -887,-1155 l -884,-1156 -5,1822 -5,1821 z m 274,-3315 c -251,-328 -462,-603 -469,-610 -9,-10 -94,93 -426,524 -228,296 -420,546 -427,556 -11,16 85,145 880,1175 l 893,1158 3,-1103 2,-1103 z m -2695,800 471,-614 V 6122 c 0,-1304 -2,-1504 -14,-1492 -8,8 -229,296 -490,639 l -476,624 v 1501 c 0,1468 0,1500 19,1481 10,-11 231,-296 490,-633 z"
       inkscape:connector-curvature="0" />
  </g>
</svg>
