<?xml version="1.0" encoding="UTF-8" standalone="no"?>
<svg
   xmlns:dc="http://purl.org/dc/elements/1.1/"
   xmlns:cc="http://creativecommons.org/ns#"
   xmlns:rdf="http://www.w3.org/1999/02/22-rdf-syntax-ns#"
   xmlns:svg="http://www.w3.org/2000/svg"
   xmlns="http://www.w3.org/2000/svg"
   xmlns:sodipodi="http://sodipodi.sourceforge.net/DTD/sodipodi-0.dtd"
   xmlns:inkscape="http://www.inkscape.org/namespaces/inkscape"
   width="16"
   height="16"
   fill="currentColor"
   class="bi bi-clipboard"
   viewBox="0 0 16 16"
   version="1.1"
   id="svg6"
   sodipodi:docname="clipboard-http-label.svg"
   inkscape:version="0.92.3 (2405546, 2018-03-11)">
  <metadata
     id="metadata12">
    <rdf:RDF>
      <cc:Work
         rdf:about="">
        <dc:format>image/svg+xml</dc:format>
        <dc:type
           rdf:resource="http://purl.org/dc/dcmitype/StillImage" />
        <dc:title />
      </cc:Work>
    </rdf:RDF>
  </metadata>
  <defs
     id="defs10" />
  <sodipodi:namedview
     pagecolor="#ffffff"
     bordercolor="#666666"
     borderopacity="1"
     objecttolerance="10"
     gridtolerance="10"
     guidetolerance="10"
     inkscape:pageopacity="0"
     inkscape:pageshadow="2"
     inkscape:window-width="1855"
     inkscape:window-height="1056"
     id="namedview8"
     showgrid="false"
     inkscape:zoom="14.75"
     inkscape:cx="-5.1864407"
     inkscape:cy="4.3502833"
     inkscape:window-x="65"
     inkscape:window-y="24"
     inkscape:window-maximized="1"
     inkscape:current-layer="svg6" />
  <path
     style="fill:#ffffff;fill-opacity:0;stroke:#006288;stroke-width:0.99095219;stroke-opacity:1"
     d="m 11.972114,1.9974556 h 2.611777 V 15.503709 H 1.4839012 V 1.9974556 h 2.609311"
     id="rect156"
     inkscape:connector-curvature="0"
     sodipodi:nodetypes="cccccc" />
  <path
     inkscape:connector-curvature="0"
     d="m 9.5385228,1.0008116 a 0.5,0.5 0 0 1 0.4999972,0.5 v 1 a 0.5,0.5 0 0 1 -0.4999972,0.5 H 6.5385252 a 0.5,0.5 0 0 1 -0.5,-0.5 v -1 a 0.5,0.5 0 0 1 0.5,-0.5 z M 6.5385252,8.1151017e-4 a 1.5,1.5 0 0 0 -1.5,1.50000008983 v 1 a 1.5,1.5 0 0 0 1.5,1.5 h 2.9999976 a 1.5,1.5 0 0 0 1.4999972,-1.5 v -1 A 1.5,1.5 0 0 0 9.5385228,8.1151017e-4 Z"
     id="path4-8"
     style="fill:#006288;fill-opacity:1" />
  <text
     xml:space="preserve"
     style="font-style:normal;font-variant:normal;font-weight:normal;font-stretch:normal;font-size:6.66666651px;line-height:1.25;font-family:FreeSans;-inkscape-font-specification:FreeSans;letter-spacing:0px;word-spacing:0px;fill:#006288;fill-opacity:1;stroke:none"
     x="1.2927641"
     y="14.204202"
     id="text16-8"><tspan
       sodipodi:role="line"
       id="tspan14-6"
       x="1.2927641"
       y="14.204202"
       style="font-weight:normal;font-size:8px;fill:#006288;fill-opacity:1">http</tspan></text>
  <text
     xml:space="preserve"
     style="font-style:normal;font-variant:normal;font-weight:normal;font-stretch:normal;font-size:6.66666651px;line-height:1.25;font-family:FreeSans;-inkscape-font-specification:FreeSans;letter-spacing:0px;word-spacing:0px;fill:#000000;fill-opacity:1;stroke:none"
     x="2.4067819"
     y="8.7118635"
     id="text16"><tspan
       sodipodi:role="line"
       x="2.4067819"
       y="8.7118635"
       style="font-weight:normal;line-height:0;fill:#006288;fill-opacity:1"
       id="tspan76">Ab+</tspan></text>
</svg>
