<?xml version="1.0" encoding="UTF-8" standalone="no"?>
<!-- Created with Inkscape (http://www.inkscape.org/) -->

<svg
   xmlns:dc="http://purl.org/dc/elements/1.1/"
   xmlns:cc="http://creativecommons.org/ns#"
   xmlns:rdf="http://www.w3.org/1999/02/22-rdf-syntax-ns#"
   xmlns:svg="http://www.w3.org/2000/svg"
   xmlns="http://www.w3.org/2000/svg"
   xmlns:sodipodi="http://sodipodi.sourceforge.net/DTD/sodipodi-0.dtd"
   xmlns:inkscape="http://www.inkscape.org/namespaces/inkscape"
   width="308.87375mm"
   height="97.216133mm"
   viewBox="0 0 308.87375 97.216133"
   version="1.1"
   id="svg277"
   inkscape:version="0.92.3 (2405546, 2018-03-11)"
   sodipodi:docname="drawing.svg">
  <defs
     id="defs271">
    <clipPath
       clipPathUnits="userSpaceOnUse"
       id="clipPath428">
      <path
         d="M 0,0 H 1700 V 2890 H 0 Z"
         id="path426"
         inkscape:connector-curvature="0" />
    </clipPath>
  </defs>
  <sodipodi:namedview
     id="base"
     pagecolor="#ffffff"
     bordercolor="#666666"
     borderopacity="1.0"
     inkscape:pageopacity="0.0"
     inkscape:pageshadow="2"
     inkscape:zoom="0.35"
     inkscape:cx="353.6984"
     inkscape:cy="148.42355"
     inkscape:document-units="mm"
     inkscape:current-layer="layer1"
     showgrid="false"
     fit-margin-top="0"
     fit-margin-left="0"
     fit-margin-right="0"
     fit-margin-bottom="0"
     inkscape:window-width="1215"
     inkscape:window-height="696"
     inkscape:window-x="65"
     inkscape:window-y="24"
     inkscape:window-maximized="1" />
  <metadata
     id="metadata274">
    <rdf:RDF>
      <cc:Work
         rdf:about="">
        <dc:format>image/svg+xml</dc:format>
        <dc:type
           rdf:resource="http://purl.org/dc/dcmitype/StillImage" />
        <dc:title></dc:title>
      </cc:Work>
    </rdf:RDF>
  </metadata>
  <g
     inkscape:label="Layer 1"
     inkscape:groupmode="layer"
     id="layer1"
     transform="translate(-12.250631,-90.887598)">
    <g
       transform="matrix(1.0476215,0,0,-1.0476215,-38.959517,3075.7801)"
       id="g422">
      <g
         id="g424"
         clip-path="url(#clipPath428)">
        <g
           id="g430"
           transform="translate(97.6283,2816.0459)">
          <path
             d="m 0,0 v -7.078 c -4.682,5.227 -11.215,7.731 -18.62,7.731 -16.986,0 -29.4,-11.651 -29.4,-29.726 0,-18.075 12.414,-29.835 29.4,-29.835 7.949,0 14.7,2.722 19.273,8.275 v -7.513 H 13.611 V 0 Z m -17.095,-47.257 c -9.8,0 -17.205,7.077 -17.205,18.184 0,11.106 7.405,18.184 17.205,18.184 9.908,0 17.313,-7.078 17.313,-18.184 0,-11.107 -7.405,-18.184 -17.313,-18.184 m 81.556,47.91 c -8.494,0 -15.571,-2.831 -20.036,-8.166 V 0 H 31.467 v -58.146 h 13.612 v 29.4 c 0,11.651 6.533,17.531 16.224,17.531 8.711,0 13.829,-5.009 13.829,-15.354 v -31.577 h 13.611 v 33.32 c 0,17.531 -10.345,25.479 -24.282,25.479 m 74.588,0 c -8.494,0 -15.571,-2.831 -20.036,-8.166 V 0 h -12.957 v -58.146 h 13.611 v 29.4 c 0,11.651 6.533,17.531 16.224,17.531 8.711,0 13.829,-5.009 13.829,-15.354 v -31.577 h 13.611 v 33.32 c 0,17.531 -10.345,25.479 -24.282,25.479 m 41.595,-58.799 h 13.611 V 0 h -13.611 z m 53.353,70.559 c 2.831,0 5.445,-0.98 7.405,-2.395 l 3.811,10.235 c -3.049,2.178 -7.514,3.158 -12.196,3.158 -13.502,0 -20.906,-7.949 -20.906,-20.144 v -61.413 h 13.611 v 46.822 h 15.68 v 10.888 h -16.007 v 3.485 c 0,6.207 2.94,9.364 8.602,9.364"
             style="fill:#290049;fill-opacity:1;fill-rule:nonzero;stroke:none"
             id="path432"
             inkscape:connector-curvature="0" />
        </g>
        <g
           id="g434"
           transform="translate(97.6283,2816.0459)">
          <path
             d="m 0,0 v -7.078 c -4.682,5.227 -11.215,7.731 -18.62,7.731 -16.986,0 -29.4,-11.651 -29.4,-29.726 0,-18.075 12.414,-29.835 29.4,-29.835 7.949,0 14.7,2.722 19.273,8.275 v -7.513 H 13.611 V 0 Z m -17.095,-47.257 c -9.8,0 -17.205,7.077 -17.205,18.184 0,11.106 7.405,18.184 17.205,18.184 9.908,0 17.313,-7.078 17.313,-18.184 0,-11.107 -7.405,-18.184 -17.313,-18.184 z m 81.556,47.91 c -8.494,0 -15.571,-2.831 -20.036,-8.166 V 0 H 31.467 v -58.146 h 13.612 v 29.4 c 0,11.651 6.533,17.531 16.224,17.531 8.711,0 13.829,-5.009 13.829,-15.354 v -31.577 h 13.611 v 33.32 c 0,17.531 -10.345,25.479 -24.282,25.479 z m 74.588,0 c -8.494,0 -15.571,-2.831 -20.036,-8.166 V 0 h -12.957 v -58.146 h 13.611 v 29.4 c 0,11.651 6.533,17.531 16.224,17.531 8.711,0 13.829,-5.009 13.829,-15.354 v -31.577 h 13.611 v 33.32 c 0,17.531 -10.345,25.479 -24.282,25.479 z m 41.595,-58.799 h 13.611 V 0 h -13.611 z m 53.353,70.559 c 2.831,0 5.445,-0.98 7.405,-2.395 l 3.811,10.235 c -3.049,2.178 -7.514,3.158 -12.196,3.158 -13.502,0 -20.906,-7.949 -20.906,-20.144 v -61.413 h 13.611 v 46.822 h 15.68 v 10.888 h -16.007 v 3.485 c 0,6.207 2.94,9.364 8.602,9.364 z"
             style="fill:none;stroke:#290049;stroke-width:1.45200002;stroke-linecap:butt;stroke-linejoin:miter;stroke-miterlimit:4;stroke-dasharray:none;stroke-opacity:1"
             id="path436"
             inkscape:connector-curvature="0" />
        </g>
        <g
           id="g438"
           transform="translate(70.9247,2783.2261)">
          <path
             d="m 0,0 c 0.55,-1.274 1.306,-2.391 2.27,-3.354 0.963,-0.964 2.08,-1.72 3.354,-2.27 1.272,-0.552 2.632,-0.825 4.076,-0.825 1.445,0 2.803,0.273 4.076,0.825 1.273,0.55 2.39,1.306 3.354,2.27 0.963,0.963 1.719,2.08 2.271,3.354 0.549,1.272 0.825,2.632 0.825,4.076 0,1.445 -0.276,2.803 -0.825,4.076 -0.552,1.273 -1.308,2.39 -2.271,3.354 -0.964,0.963 -2.081,1.719 -3.354,2.271 -1.273,0.549 -2.631,0.825 -4.076,0.825 -1.444,0 -2.804,-0.276 -4.076,-0.825 C 4.35,13.225 3.233,12.469 2.27,11.506 1.306,10.542 0.55,9.425 0,8.152 -0.551,6.879 -0.826,5.521 -0.826,4.076 -0.826,2.632 -0.551,1.272 0,0"
             style="fill:#290049;fill-opacity:1;fill-rule:nonzero;stroke:none"
             id="path440"
             inkscape:connector-curvature="0" />
        </g>
        <g
           id="g442"
           transform="translate(275.4316,2834.6069)">
          <path
             d="m 0,0 c 0.55,-1.274 1.306,-2.391 2.27,-3.354 0.963,-0.964 2.08,-1.72 3.354,-2.27 1.272,-0.552 2.632,-0.825 4.076,-0.825 1.445,0 2.803,0.273 4.076,0.825 1.273,0.55 2.39,1.306 3.354,2.27 0.963,0.963 1.719,2.08 2.271,3.354 0.549,1.272 0.825,2.632 0.825,4.076 0,1.445 -0.276,2.803 -0.825,4.076 -0.552,1.273 -1.308,2.39 -2.271,3.354 -0.964,0.963 -2.081,1.719 -3.354,2.271 -1.273,0.549 -2.631,0.825 -4.076,0.825 -1.444,0 -2.804,-0.276 -4.076,-0.825 C 4.35,13.225 3.233,12.469 2.27,11.506 1.306,10.542 0.55,9.425 0,8.152 -0.551,6.879 -0.826,5.521 -0.826,4.076 -0.826,2.632 -0.551,1.272 0,0"
             style="fill:#74de99;fill-opacity:1;fill-rule:nonzero;stroke:none"
             id="path444"
             inkscape:connector-curvature="0" />
        </g>
      </g>
    </g>
  </g>
</svg>
