<?xml version="1.0" encoding="utf-8"?>
<!-- Generator: Adobe Illustrator 24.1.0, SVG Export Plug-In . SVG Version: 6.00 Build 0)  -->
<svg version="1.1" id="Layer_1" xmlns="http://www.w3.org/2000/svg" xmlns:xlink="http://www.w3.org/1999/xlink" x="0px" y="0px"
	 viewBox="0 0 500 500" style="enable-background:new 0 0 500 500;" xml:space="preserve">
<style type="text/css">
	.st0{clip-path:url(#SVGID_2_);fill:#343260;}
	.st1{fill:#FFFFFF;}
	.st2{clip-path:url(#SVGID_4_);fill:#343260;}
</style>
<g>
	<defs>
		<rect id="SVGID_1_" width="500" height="500"/>
	</defs>
	<clipPath id="SVGID_2_">
		<use xlink:href="#SVGID_1_"  style="overflow:visible;"/>
	</clipPath>
	<path class="st0" d="M250,497.5c136.69,0,247.5-110.81,247.5-247.5S386.69,2.5,250,2.5S2.5,113.31,2.5,250S113.31,497.5,250,497.5"
		/>
</g>
<rect x="136.08" y="102.86" class="st1" width="227.83" height="294.29"/>
<g>
	<defs>
		<rect id="SVGID_3_" width="500" height="500"/>
	</defs>
	<clipPath id="SVGID_4_">
		<use xlink:href="#SVGID_3_"  style="overflow:visible;"/>
	</clipPath>
	<path class="st2" d="M288.27,285.64c-3.71,0-6.6-0.77-8.69-2.32c-2.08-1.54-3.13-3.63-3.13-6.25c0-5.48,4.17-8.22,12.51-8.22h14.94
		v7.18c-1.16,3.09-3.15,5.46-5.96,7.12C295.12,284.81,291.9,285.64,288.27,285.64 M290.24,232.83c-5.1,0-9.92,0.66-14.48,1.97
		c-4.56,1.31-8.45,3.21-11.7,5.68l5.67,10.54c2.32-1.93,5.15-3.43,8.51-4.52c3.36-1.08,6.78-1.62,10.25-1.62
		c5.1,0,8.94,1.16,11.52,3.47c2.59,2.32,3.88,5.64,3.88,9.96v0.93h-15.98c-8.88,0-15.39,1.68-19.52,5.04
		c-4.13,3.36-6.2,7.82-6.2,13.38c0,3.55,0.94,6.74,2.84,9.55c1.89,2.82,4.57,5.02,8.05,6.6c3.47,1.58,7.53,2.38,12.16,2.38
		c4.63,0,8.59-0.71,11.87-2.14c3.28-1.43,5.81-3.49,7.59-6.2v7.53h13.67v-36.25c0-8.8-2.41-15.38-7.24-19.75
		C306.32,235.01,299.35,232.83,290.24,232.83 M200.61,264.79l15.17-35.44l15.29,35.44H200.61z M244.16,295.37h15.75l-36.6-81.07
		h-14.82L172,295.37h15.52l7.99-18.76h40.54L244.16,295.37z"/>
</g>
</svg>
