<?xml version="1.0" encoding="utf-8"?>
<!-- Generator: Adobe Illustrator 24.1.0, SVG Export Plug-In . SVG Version: 6.00 Build 0)  -->
<svg version="1.1" id="Layer_1" xmlns="http://www.w3.org/2000/svg" xmlns:xlink="http://www.w3.org/1999/xlink" x="0px" y="0px"
	 viewBox="0 0 500 500" style="enable-background:new 0 0 500 500;" xml:space="preserve">
<style type="text/css">
	.st0{fill:#FFBA85;}
	.st1{fill:#FFFFFF;}
	.st2{fill:#333361;}
</style>
<g>
	<path class="st0" d="M250,497.5c136.69,0,247.5-110.81,247.5-247.5C497.5,113.31,386.69,2.5,250,2.5S2.5,113.31,2.5,250
		C2.5,386.69,113.31,497.5,250,497.5"/>
	<path class="st1" d="M250,135.67c-70.19,0-127.04,48.34-127.04,107.98c0.15,22.44,8.12,44.12,22.55,61.29l-22.55,59.39l62.69-27.57
		c17.26,8.57,36.09,13.52,55.32,14.55c2.98,0.25,5.97,0.32,9.02,0.32c59.77,0,109.82-35.06,123.35-82.26
		c2.45-8.35,3.69-17.02,3.68-25.72C377.04,184.01,320.19,135.67,250,135.67"/>
	<path class="st2" d="M250,294.4c-24.48,0-44.4-19.92-44.4-44.4h14.56c0,16.46,13.39,29.85,29.85,29.85
		c16.46,0,29.85-13.39,29.85-29.85h14.56C294.41,274.48,274.48,294.4,250,294.4"/>
</g>
</svg>
