<svg xmlns="http://www.w3.org/2000/svg" width="160" height="102" viewBox="0 0 160 102">
  <g fill="none" fill-rule="evenodd">
    <polygon fill="#E73C4E" points="104.92 102 106.373 102 106.373 0 104.92 0"/>
    <polygon fill="#0068B2" points=".014 102 1.468 102 1.468 0 .014 0"/>
    <polygon fill="#CCC400" points="14.357 102 15.81 102 15.81 0 14.357 0"/>
    <polygon fill="#87CCF2" points="21.476 102 22.929 102 22.929 0 21.476 0"/>
    <polygon fill="#FFDE5A" points="33.464 102 34.917 102 34.917 0 33.464 0"/>
    <polygon fill="#0070B8" points="158.419 102 159.873 102 159.873 0 158.419 0"/>
    <polygon fill="#CCC400" points="122.278 102 123.732 102 123.732 0 122.278 0"/>
    <polygon fill="#87CCF2" points="78.422 102 79.875 102 79.875 0 78.422 0"/>
    <polygon fill="#CCC400" points="86.137 102 87.591 102 87.591 0 86.137 0"/>
    <polygon fill="#ECDB61" points="61.233 102 62.687 102 62.687 0 61.233 0"/>
    <polygon fill="#E73C4E" points="49.127 102 50.58 102 50.58 0 49.127 0"/>
    <polygon fill="#3296E6" points="68.446 102 69.9 102 69.9 0 68.446 0"/>
    <polygon fill="#FFDE5A" points="134.988 102 136.442 102 136.442 0 134.988 0"/>
    <polygon fill="#3296E6" points="142.51 102 143.964 102 143.964 0 142.51 0"/>
    <polygon fill="#F49D5B" points="95.225 102 96.678 102 96.678 0 95.225 0"/>
    <path fill="#000000" d="M0,80.4853276 L0,61.811395 L9.12759726,61.811395 C12.9041544,61.811395 15.4482381,63.1226613 15.4482381,66.6108843 C15.4482381,68.9973822 14.0850166,70.2563492 11.5405888,70.8337055 L11.5405888,70.8863489 C14.0850166,71.0700844 16.1305371,72.4071563 16.1305371,75.1611253 C16.1305371,79.0168194 13.2454759,80.4853276 8.49794168,80.4853276 L0,80.4853276 Z M18.9271712,80.4854653 L18.9271712,61.8118767 L23.5955683,61.8118767 L23.5955683,80.4854653 L18.9271712,80.4854653 Z M27.2083806,80.4853276 L27.2083806,61.811395 L36.3359779,61.811395 C40.1128791,61.811395 42.6573069,63.1226613 42.6573069,66.6108843 C42.6573069,68.9973822 41.2933972,70.2563492 38.7489694,70.8337055 L38.7489694,70.8863489 C41.2933972,71.0700844 43.3392617,72.4071563 43.3392617,75.1611253 C43.3392617,79.0168194 40.4538565,80.4853276 35.7066664,80.4853276 L27.2083806,80.4853276 Z M46.135483,80.4853276 L46.135483,61.811395 L50.8038801,61.811395 L50.8038801,76.5511846 L58.0958422,76.5511846 L58.0958422,80.4853276 L46.135483,80.4853276 Z M60.7087752,80.4854653 L60.7087752,61.8118767 L65.3771723,61.8118767 L65.3771723,80.4854653 L60.7087752,80.4854653 Z M87.0613747,71.1482925 C87.0613747,76.3937019 83.5731517,81.0101438 77.6192937,81.0101438 C71.6654358,81.0101438 68.1768687,76.3937019 68.1768687,71.1482925 C68.1768687,65.9028831 71.6654358,61.2867852 77.6192937,61.2867852 C83.5731517,61.2867852 87.0613747,65.9028831 87.0613747,71.1482925 Z M88.368581,65.4307446 L88.368581,61.8110853 L102.794231,61.8110853 L102.794231,65.4307446 L97.9162927,65.4307446 L97.9162927,80.485362 L93.2472074,80.485362 L93.2472074,65.4307446 L88.368581,65.4307446 Z M104.915035,80.4853276 L104.915035,61.811395 L109.583432,61.811395 L109.583432,68.5260007 L116.534072,68.5260007 L116.534072,61.811395 L121.203158,61.811395 L121.203158,80.4853276 L116.534072,80.4853276 L116.534072,72.6170415 L109.583432,72.6170415 L109.583432,80.4853276 L104.915035,80.4853276 Z M139.345978,80.4853276 L124.815729,80.4853276 L124.815729,61.811395 L138.55908,61.811395 L138.55908,65.4307102 L129.484126,65.4307102 L129.484126,68.8404844 L137.955918,68.8404844 L137.955918,72.4601437 L129.484126,72.4601437 L129.484126,76.8656683 L139.345978,76.8656683 L139.345978,80.4853276 Z M142.170482,80.4853276 L142.170482,61.811395 L146.838879,61.811395 L146.838879,69.2602548 L153.527679,61.811395 L159.717572,61.811395 L152.924173,68.8927836 L159.927113,80.4853276 L154.734003,80.4853276 L149.645835,72.1976152 L146.838879,75.0565268 L146.838879,80.4853276 L142.170482,80.4853276 Z M0,60.5502258 L0,41.8759491 L4.72069641,41.8759491 L11.5140951,53.8094705 L11.5663944,53.8094705 L11.5663944,41.8759491 L15.8157093,41.8759491 L15.8157093,60.5502258 L11.146968,60.5502258 L4.3012701,48.80044 L4.24897084,48.80044 L4.24897084,60.5502258 L0,60.5502258 Z M17.6998245,60.5502258 L24.5978217,41.8759491 L29.4238048,41.8759491 L36.4790439,60.5502258 L31.4693252,60.5502258 L30.52553,57.6128654 L23.6271887,57.6128654 L22.6830495,60.5502258 L17.6998245,60.5502258 Z M36.8627897,45.4951267 L36.8627897,41.8758114 L51.2884397,41.8758114 L51.2884397,45.4951267 L46.4105014,45.4951267 L46.4105014,60.5500882 L41.7414161,60.5500882 L41.7414161,45.4951267 L36.8627897,45.4951267 Z M53.4095876,60.550157 L53.4095876,41.8758803 L58.0779847,41.8758803 L58.0779847,60.550157 L53.4095876,60.550157 Z M79.7618775,51.2130186 C79.7618775,56.4587721 76.2736544,61.0752141 70.3194524,61.0752141 C64.3659386,61.0752141 60.8773715,56.4587721 60.8773715,51.2130186 C60.8773715,45.9676092 64.3659386,41.3518554 70.3194524,41.3518554 C76.2736544,41.3518554 79.7618775,45.9676092 79.7618775,51.2130186 Z M82.5640168,60.5502258 L82.5640168,41.8759491 L87.2854013,41.8759491 L94.0788,53.8094705 L94.1307552,53.8094705 L94.1307552,41.8759491 L98.3800701,41.8759491 L98.3800701,60.5502258 L93.7113289,60.5502258 L86.865975,48.80044 L86.8133317,48.80044 L86.8133317,60.5502258 L82.5640168,60.5502258 Z M100.264323,60.5502258 L107.16232,41.8759491 L111.987615,41.8759491 L119.043542,60.5502258 L114.034168,60.5502258 L113.089684,57.6128654 L106.192031,57.6128654 L105.24686,60.5502258 L100.264323,60.5502258 Z M120.922565,60.5502258 L120.922565,41.8759491 L125.590962,41.8759491 L125.590962,56.6160828 L132.88258,56.6160828 L132.88258,60.5502258 L120.922565,60.5502258 Z M0.00688148164,40.6152616 L0.00688148164,21.9409849 L7.24620017,21.9409849 C12.9378736,21.9409849 16.76673,24.6426546 16.76673,31.2781233 C16.76673,37.9135919 12.9378736,40.6152616 7.24620017,40.6152616 L0.00688148164,40.6152616 Z M34.0991179,40.6152616 L19.5692134,40.6152616 L19.5692134,21.9409849 L33.3125645,21.9409849 L33.3125645,25.5603002 L24.2372665,25.5603002 L24.2372665,28.9700743 L32.7094026,28.9700743 L32.7094026,32.5897337 L24.2372665,32.5897337 L24.2372665,36.9956023 L34.0991179,36.9956023 L34.0991179,40.6152616 Z M52.3735117,21.9408473 L52.3735117,34.1100594 C52.3735117,39.2250647 48.046092,41.1394929 44.4525822,41.1394929 C40.8855662,41.1394929 36.5578024,39.2250647 36.5578024,34.1100594 L36.5578024,21.9408473 L41.2261996,21.9408473 L41.2261996,33.7171268 C41.2261996,35.8152906 42.0399348,37.3632799 44.4525822,37.3632799 C46.8920675,37.3632799 47.7051145,35.8152906 47.7051145,33.7171268 L47.7051145,21.9408473 L52.3735117,21.9408473 Z M54.4937306,25.5601625 L54.4937306,21.9408473 L68.9193806,21.9408473 L68.9193806,25.5601625 L64.0410982,25.5601625 L64.0410982,40.615124 L59.372357,40.615124 L59.372357,25.5601625 L54.4937306,25.5601625 Z M69.2827228,37.3364765 L72.8500829,35.0284275 C74.4758329,36.4976239 76.0234781,37.3633143 78.2530782,37.3633143 C79.4858956,37.3633143 81.7416453,36.8382572 81.7416453,35.2125072 C81.7416453,34.2676797 81.0331968,33.7956101 79.6431375,33.5599194 L75.7606056,32.9302638 C72.2992203,32.3797453 70.4105976,30.5434219 70.4105976,27.789797 C70.4105976,23.2782976 74.0560625,21.4165128 78.0428489,21.4165128 C81.1381394,21.4165128 84.1807865,22.6751358 86.2786062,25.0093343 L82.7380839,27.5534181 C81.5052664,26.0587603 79.6954368,25.1930699 77.7283652,25.1930699 C76.6531337,25.1930699 75.0796829,25.8753688 75.0796829,27.0813485 C75.0796829,28.0781311 75.8923859,28.5763503 77.676066,28.8650285 L79.4594019,29.1537067 C83.1836598,29.7565245 86.2528006,30.910893 86.2528006,34.477909 C86.2528006,40.0904454 81.1904386,41.1395273 77.7022156,41.1395273 C74.5284763,41.1395273 71.8268066,40.1165951 69.2827228,37.3364765 Z M105.438543,26.2948639 L101.713942,28.1566488 C101.05848,26.4256121 99.4581919,25.3503806 97.8320977,25.3503806 C95.2618643,25.3503806 93.2163439,27.0814173 93.2163439,31.2780889 C93.2163439,34.0055641 94.317381,37.2054531 97.9893396,37.2054531 C99.2486507,37.2054531 101.084974,36.2613138 101.818884,34.5829204 L105.517336,36.3662564 C103.917048,39.2774672 101.136929,41.1395961 97.9893396,41.1395961 C92.0358258,41.1395961 88.5472586,36.5234982 88.5472586,31.2780889 C88.5472586,26.0323354 91.7994469,21.4165816 97.6222126,21.4165816 C101.294515,21.4165816 103.707507,23.1995735 105.438543,26.2948639 Z M107.451583,40.6152616 L107.451583,21.9409849 L112.11998,21.9409849 L112.11998,28.6555906 L119.070621,28.6555906 L119.070621,21.9409849 L123.739706,21.9409849 L123.739706,40.6152616 L119.070621,40.6152616 L119.070621,32.7466314 L112.11998,32.7466314 L112.11998,40.6152616 L107.451583,40.6152616 Z M141.882526,40.6152616 L127.352278,40.6152616 L127.352278,21.9409849 L141.095973,21.9409849 L141.095973,25.5603002 L132.020331,25.5603002 L132.020331,28.9700743 L140.492811,28.9700743 L140.492811,32.5897337 L132.020331,32.5897337 L132.020331,36.9956023 L141.882526,36.9956023 L141.882526,40.6152616 Z M4.51081122,72.6170415 L4.51081122,77.0232542 L8.31420612,77.0232542 C10.7794969,77.0232542 11.4614518,76.0529653 11.4614518,74.8462975 C11.4614518,73.2989963 10.8844395,72.6170415 9.15340281,72.6170415 L4.51081122,72.6170415 Z M4.45851196,65.2731243 L4.45851196,69.1549681 L8.34035575,69.1549681 C9.83570172,69.1549681 10.7794969,68.5782999 10.7794969,67.2143903 C10.7794969,65.6402513 9.8876569,65.2731243 8.34035575,65.2731243 L4.45851196,65.2731243 Z M31.7195359,72.6170415 L31.7195359,77.0232542 L35.5229308,77.0232542 C37.9882216,77.0232542 38.6701764,76.0529653 38.6701764,74.8462975 C38.6701764,73.2989963 38.0931642,72.6170415 36.3621275,72.6170415 L31.7195359,72.6170415 Z M31.6672366,65.2731243 L31.6672366,69.1549681 L35.5490804,69.1549681 C37.0444264,69.1549681 37.9882216,68.5782999 37.9882216,67.2143903 C37.9882216,65.6402513 37.0963816,65.2731243 35.5490804,65.2731243 L31.6672366,65.2731243 Z M82.3929776,71.1482925 C82.3929776,68.210932 81.0810231,65.2209283 77.6192937,65.2209283 C74.8914744,65.2209283 72.845954,66.951965 72.845954,71.1482925 C72.845954,73.8761118 73.9469911,77.0756567 77.6192937,77.0756567 C81.0810231,77.0756567 82.3929776,74.0336977 82.3929776,71.1482925 Z M24.7285699,54.1504479 L29.3973111,54.1504479 L27.0889181,46.4397477 L27.0366188,46.4397477 L24.7285699,54.1504479 Z M75.0934803,51.2130186 C75.0934803,48.2753141 73.7818699,45.2856544 70.3194524,45.2856544 C67.5919772,45.2856544 65.5464568,47.016347 65.5464568,51.2130186 C65.5464568,53.941182 66.6474938,57.1407269 70.3194524,57.1407269 C73.7818699,57.1407269 75.0934803,54.0980798 75.0934803,51.2130186 Z M107.293068,54.1504479 L111.96181,54.1504479 L109.653417,46.4397477 L109.601117,46.4397477 L107.293068,54.1504479 Z M4.6756227,25.875472 L4.6756227,36.6811186 L7.35079869,36.6811186 C10.8393658,36.6811186 12.0979888,34.2942767 12.0979888,31.2781233 C12.0979888,28.2619699 10.8393658,25.875472 7.32464906,25.875472 L4.6756227,25.875472 Z"/>
  </g>
</svg>