<?xml version="1.0" encoding="utf-8"?>
<!-- Generator: Adobe Illustrator 24.1.0, SVG Export Plug-In . SVG Version: 6.00 Build 0)  -->
<svg version="1.1" id="Layer_1" xmlns="http://www.w3.org/2000/svg" xmlns:xlink="http://www.w3.org/1999/xlink" x="0px" y="0px"
	 viewBox="0 0 228 92" style="enable-background:new 0 0 228 92;" xml:space="preserve">
<style type="text/css">
	.st0{fill:#009CCA;}
	.st1{fill:#005A82;}
</style>
<g>
	<path class="st0" d="M15.41,47.95h2.29v-7.06h-2.29V47.95z M21.93,47.95h6.08v-7.06h-6.08V47.95z M53.33,32.22h7.57v-3.06
		c0-3.68-1.31-6.82-3.94-9.42c-2.6-2.62-5.74-3.94-9.42-3.94c-3.7,0-6.86,1.32-9.5,3.94c-2.6,2.6-3.9,5.74-3.9,9.42v11.72h-2.69
		v7.07h2.69v25.72h7.57V47.95H50v-7.07h-8.29V29.16c0-1.71,0.55-3.17,1.65-4.41c1.12-1.26,2.5-1.88,4.14-1.88
		c1.67,0,3.06,0.64,4.21,1.91c1.08,1.27,1.62,2.72,1.62,4.38V32.22z M53.33,73.67h7.58V40.88h-7.58V73.67z M89.02,73.67h7.61V53.57
		c0-4.62-0.93-7.96-2.76-9.99c-2.13-2.4-5.11-3.6-8.92-3.6c-3.32,0-6.31,1.32-8.96,3.93v-3.02h-7.61v32.79h7.61V57.87
		c0-4.09,0.51-6.94,1.55-8.58c1.05-1.65,2.84-2.48,5.35-2.48c2.31,0,3.91,0.63,4.78,1.89c0.91,1.23,1.36,3.45,1.36,6.69V73.67z
		 M111.35,47.95h7.25v-7.07h-7.25V28.86h-7.57v12.02h-3.84v7.07h3.84v25.72h7.57V47.95z M145.79,57.34c0,3.19-0.89,5.74-2.66,7.65
		c-1.78,1.91-4.14,2.86-7.1,2.86c-2.94,0-5.31-0.97-7.1-2.9c-1.76-1.91-2.62-4.51-2.62-7.78c0-3.04,0.89-5.53,2.69-7.47
		c1.8-1.93,4.14-2.89,7.03-2.89c2.94,0,5.31,0.97,7.1,2.89C144.9,51.61,145.79,54.16,145.79,57.34 M153.53,57.31
		c0-4.87-1.68-8.98-5.05-12.32c-3.41-3.35-7.57-5.02-12.46-5.02c-4.87,0-9,1.66-12.39,4.98c-3.39,3.32-5.09,7.35-5.09,12.09
		c0,5.03,1.67,9.21,4.99,12.53c3.32,3.36,7.44,5.04,12.35,5.04c4.97,0,9.15-1.65,12.57-4.95C151.83,66.33,153.53,62.22,153.53,57.31
		"/>
	<path class="st1" d="M185.68,57.39c0,3.19-1.01,5.74-2.84,7.64c-1.85,1.92-4.3,2.87-7.36,2.87c-3.05,0-5.51-0.97-7.37-2.89
		c-1.82-1.92-2.72-4.51-2.72-7.79c0-3.04,0.94-5.54,2.79-7.47c1.87-1.93,4.29-2.89,7.3-2.89c3.04,0,5.5,0.97,7.36,2.89
		C184.66,51.66,185.68,54.21,185.68,57.39 M186.3,73.77h7.38V40.73h-7.38l-0.04,4.03c-2.6-3.28-7.08-4.73-11.15-4.73
		c-4.87,0-9,1.66-12.39,4.99c-3.39,3.32-5.08,7.34-5.08,12.08c0,5.02,1.66,9.2,4.99,12.52c3.32,3.37,7.43,5.06,12.35,5.06
		c4.37,0,8.22-1.4,11.28-4.54L186.3,73.77z M201.49,24.52h7.07v-2.41h-7.07V24.52z M201.49,35.56h7.07v-6.69h-7.07V35.56z
		 M208.81,40.73h-7.58v33.04h7.58V40.73z"/>
</g>
</svg>
