<?xml version="1.0" encoding="utf-8"?>
<!-- Generator: Adobe Illustrator 24.1.0, SVG Export Plug-In . SVG Version: 6.00 Build 0)  -->
<svg version="1.1" id="Layer_1" xmlns="http://www.w3.org/2000/svg" xmlns:xlink="http://www.w3.org/1999/xlink" x="0px" y="0px"
	 viewBox="0 0 500 500" style="enable-background:new 0 0 500 500;" xml:space="preserve">
<style type="text/css">
	.st0{clip-path:url(#SVGID_2_);fill:#343260;}
	.st1{fill:#FFFFFF;}
	.st2{fill:#333361;}
</style>
<g>
	<defs>
		<rect id="SVGID_1_" width="500" height="500"/>
	</defs>
	<clipPath id="SVGID_2_">
		<use xlink:href="#SVGID_1_"  style="overflow:visible;"/>
	</clipPath>
	<path class="st0" d="M250,497.5c136.69,0,247.5-110.81,247.5-247.5S386.69,2.5,250,2.5S2.5,113.31,2.5,250S113.31,497.5,250,497.5"
		/>
</g>
<rect x="112.61" y="113.43" class="st1" width="211.88" height="273.68"/>
<rect x="145.99" y="161.48" class="st2" width="145.13" height="13.01"/>
<rect x="145.99" y="194.92" class="st2" width="145.13" height="13.01"/>
<rect x="145.99" y="228.35" class="st2" width="145.13" height="13.01"/>
<rect x="145.99" y="261.79" class="st2" width="145.13" height="13.01"/>
<rect x="145.99" y="295.23" class="st2" width="145.13" height="13.01"/>
<rect x="145.99" y="328.66" class="st2" width="96.75" height="13.01"/>
<rect x="359.07" y="160.32" class="st1" width="69.92" height="13.01"/>
<rect x="359.07" y="194.7" class="st1" width="69.92" height="13.01"/>
<rect x="359.07" y="229.09" class="st1" width="44.49" height="13.01"/>
</svg>
