<?xml version="1.0" encoding="UTF-8"?>
<svg xmlns="http://www.w3.org/2000/svg" xmlns:xlink="http://www.w3.org/1999/xlink" width="605.43pt" height="240.86pt" viewBox="0 0 605.43 240.86" version="1.2">
<defs>
<clipPath id="clip1">
  <path d="M 0 110 L 106 110 L 106 240.675781 L 0 240.675781 Z M 0 110 "/>
</clipPath>
<clipPath id="clip2">
  <path d="M 17 0.0429688 L 89 0.0429688 L 89 108 L 17 108 Z M 17 0.0429688 "/>
</clipPath>
<clipPath id="clip3">
  <path d="M 576 187 L 604.859375 187 L 604.859375 221 L 576 221 Z M 576 187 "/>
</clipPath>
</defs>
<g id="surface1">
<g clip-path="url(#clip1)" clip-rule="nonzero">
<path style=" stroke:none;fill-rule:evenodd;fill:rgb(5.723572%,15.621948%,30.461121%);fill-opacity:1;" d="M 53 139.59375 C 28.917969 139.59375 9.738281 125.316406 0.191406 110.644531 L 0 110.347656 L 105.996094 110.347656 L 105.808594 110.640625 C 94.386719 128.847656 75.058594 139.59375 53 139.59375 Z M 62.1875 240.675781 L 43.804688 240.675781 L 43.804688 144.050781 L 44.042969 144.117188 C 51.15625 146.0625 54.855469 146.351562 61.945312 144.117188 L 62.1875 144.039062 L 62.1875 240.675781 "/>
</g>
<g clip-path="url(#clip2)" clip-rule="nonzero">
<path style=" stroke:none;fill-rule:evenodd;fill:rgb(94.143677%,24.446106%,21.826172%);fill-opacity:1;" d="M 62.816406 11.828125 C 71.796875 20.136719 69.78125 32.523438 67.847656 36.269531 C 63.636719 44.429688 54.265625 54.925781 51.894531 57.800781 C 47.945312 62.589844 36.074219 74.269531 34.792969 80.726562 C 33.710938 86.167969 35.417969 94.152344 36.15625 97.109375 C 33.523438 97.109375 28.707031 97.105469 28.707031 97.105469 C 26.808594 92.199219 23.738281 83.199219 25.503906 73.023438 C 26.800781 65.542969 37.375 53.714844 39.328125 51.492188 C 42.832031 47.511719 52.628906 35.585938 56.613281 30.414062 C 61.152344 24.519531 60.8125 20.746094 57.761719 16.007812 C 57.804688 16.054688 62.816406 11.828125 62.816406 11.828125 Z M 54.96875 107.027344 L 42.148438 107.027344 C 39.523438 99.304688 36.1875 89.132812 39.359375 81.109375 C 42.765625 72.480469 58.25 60.105469 67.867188 49.339844 C 73.039062 42.859375 74.976562 38.777344 71.855469 33.191406 C 71.855469 33.191406 76.949219 28.992188 76.949219 28.976562 C 82.386719 33.648438 86.351562 46.058594 80.429688 53.71875 C 76.847656 58.351562 73.140625 62.308594 68.328125 67.492188 C 63.636719 72.546875 58.988281 76.90625 52.644531 84.195312 C 47.792969 89.777344 53.21875 100.953125 54.96875 107.027344 Z M 69.667969 107.027344 L 58.785156 107.027344 C 57.761719 103.148438 56.125 99.074219 55.492188 95.113281 C 54.714844 90.261719 55.050781 87.496094 58.519531 83.957031 C 63.492188 78.890625 75.742188 70.664062 78.683594 66.898438 C 81.21875 63.652344 79.714844 59.457031 79.714844 59.457031 C 79.710938 59.464844 84.746094 55.269531 84.722656 55.269531 C 90.949219 62.5 89.230469 73.039062 84.566406 77.011719 C 81.171875 79.894531 73.886719 85.917969 69.085938 90.730469 C 66.492188 93.359375 66.320312 93.554688 67.222656 97.652344 C 67.976562 100.792969 69.023438 104.8125 69.667969 107.027344 Z M 21.980469 77.339844 C 19.042969 73.050781 17.613281 68.992188 17.28125 63.597656 C 16.535156 51.449219 25.273438 41.542969 32.535156 31.34375 C 38.757812 22.597656 44.585938 14.742188 45.289062 11.335938 C 45.8125 8.808594 44.769531 6.03125 43.976562 4.332031 C 43.96875 4.332031 48.578125 0.441406 49.113281 0.0429688 C 55.8125 6.160156 56.214844 15.632812 52.820312 22.785156 C 45.207031 38.832031 19.765625 59.636719 21.980469 77.339844 "/>
</g>
<path style=" stroke:none;fill-rule:nonzero;fill:rgb(13.729858%,12.159729%,12.548828%);fill-opacity:1;" d="M 100.707031 145.300781 L 99.167969 145.394531 C 98.003906 145.445312 97.335938 145.722656 97.164062 146.230469 C 97.003906 146.738281 96.921875 147.523438 96.921875 148.585938 L 96.921875 166.886719 C 96.921875 170.472656 96.058594 173.175781 94.328125 174.992188 C 92.609375 176.796875 90.882812 177.699219 89.152344 177.699219 C 88.867188 177.699219 88.628906 177.675781 88.429688 177.625 L 88.261719 174.660156 L 88.671875 174.4375 C 89.078125 174.722656 89.523438 174.925781 90.003906 175.046875 C 90.5 175.171875 90.933594 175.234375 91.304688 175.234375 C 91.933594 175.234375 92.421875 174.980469 92.769531 174.472656 C 93.125 173.957031 93.304688 172.769531 93.304688 170.914062 L 93.304688 148.601562 C 93.304688 147.378906 93.214844 146.558594 93.027344 146.136719 C 92.855469 145.714844 92.335938 145.480469 91.46875 145.433594 L 89.523438 145.300781 L 89.523438 144.152344 C 91.511719 144.238281 93.378906 144.28125 95.125 144.28125 C 96.867188 144.28125 98.726562 144.238281 100.707031 144.152344 L 100.707031 145.300781 "/>
<path style=" stroke:none;fill-rule:nonzero;fill:rgb(13.729858%,12.159729%,12.548828%);fill-opacity:1;" d="M 115.171875 157.542969 L 118.917969 151.589844 C 120.066406 149.757812 121.464844 147.324219 123.109375 144.28125 L 126.148438 144.28125 L 126.148438 144.855469 C 119.621094 152.695312 116.359375 158.03125 116.359375 160.863281 L 116.359375 166.109375 C 116.359375 167.148438 116.453125 167.914062 116.636719 168.410156 C 116.835938 168.90625 117.261719 169.175781 117.917969 169.226562 L 120.140625 169.375 L 120.140625 170.523438 C 118.152344 170.4375 116.285156 170.394531 114.542969 170.394531 C 112.8125 170.394531 110.949219 170.4375 108.957031 170.523438 L 108.957031 169.375 L 111.015625 169.226562 C 111.820312 169.175781 112.308594 168.921875 112.480469 168.464844 C 112.65625 167.996094 112.742188 167.242188 112.742188 166.203125 L 112.742188 160.65625 C 112.742188 159.976562 112.40625 159.082031 111.742188 157.96875 L 107.417969 150.496094 C 106.527344 148.960938 105.714844 147.859375 104.972656 147.191406 C 104.230469 146.527344 103.511719 146.15625 102.820312 146.082031 L 101.761719 145.953125 L 101.761719 144.800781 C 104.667969 144.171875 106.191406 143.855469 106.324219 143.855469 C 106.648438 143.855469 107.183594 144.289062 107.9375 145.152344 C 108.707031 146.007812 109.515625 147.21875 110.367188 148.789062 L 115.171875 157.542969 "/>
<path style=" stroke:none;fill-rule:nonzero;fill:rgb(13.729858%,12.159729%,12.548828%);fill-opacity:1;" d="M 139.539062 170.800781 C 139.242188 169.777344 136.386719 162.457031 130.972656 148.84375 C 130.402344 147.386719 129.957031 146.46875 129.636719 146.101562 C 129.328125 145.730469 128.839844 145.5 128.171875 145.414062 L 127.078125 145.300781 L 127.078125 144.152344 C 129.066406 144.238281 130.59375 144.28125 131.65625 144.28125 C 133.019531 144.28125 134.855469 144.238281 137.164062 144.152344 L 137.164062 145.300781 L 135.238281 145.433594 C 134.308594 145.480469 133.847656 145.703125 133.847656 146.101562 C 133.847656 146.308594 134.074219 146.984375 134.535156 148.121094 L 141.449219 165.925781 L 147.53125 149.976562 C 148.285156 147.972656 148.664062 146.820312 148.664062 146.527344 C 148.664062 145.820312 148.058594 145.445312 146.847656 145.394531 L 145.324219 145.300781 L 145.324219 144.152344 C 147.390625 144.238281 148.808594 144.28125 149.570312 144.28125 C 150.761719 144.28125 152.089844 144.238281 153.558594 144.152344 L 153.558594 145.300781 L 152.484375 145.433594 C 151.792969 145.507812 151.199219 146.160156 150.703125 147.398438 C 148.898438 151.726562 147.011719 156.269531 145.046875 161.027344 C 143.09375 165.789062 141.875 169.046875 141.394531 170.800781 L 139.539062 170.800781 "/>
<path style=" stroke:none;fill-rule:nonzero;fill:rgb(13.729858%,12.159729%,12.548828%);fill-opacity:1;" d="M 166.601562 139.238281 C 166.601562 138.632812 166.78125 138.15625 167.140625 137.808594 C 167.511719 137.464844 167.980469 137.289062 168.550781 137.289062 C 169.09375 137.289062 169.539062 137.464844 169.882812 137.808594 C 170.230469 138.15625 170.402344 138.601562 170.402344 139.144531 C 170.402344 139.6875 170.226562 140.152344 169.867188 140.535156 C 169.507812 140.90625 169.039062 141.09375 168.457031 141.09375 C 167.925781 141.09375 167.480469 140.925781 167.121094 140.589844 C 166.773438 140.246094 166.601562 139.792969 166.601562 139.238281 Z M 158.941406 139.238281 C 158.941406 138.730469 159.101562 138.28125 159.425781 137.882812 C 159.757812 137.488281 160.246094 137.289062 160.890625 137.289062 C 161.410156 137.289062 161.847656 137.457031 162.207031 137.789062 C 162.566406 138.125 162.746094 138.574219 162.746094 139.144531 C 162.746094 139.6875 162.566406 140.152344 162.207031 140.535156 C 161.847656 140.90625 161.378906 141.09375 160.796875 141.09375 C 160.265625 141.09375 159.820312 140.917969 159.460938 140.574219 C 159.117188 140.214844 158.941406 139.769531 158.941406 139.238281 Z M 158.757812 160.25 L 168.421875 160.25 L 163.542969 148.957031 Z M 169.125 161.695312 L 158.089844 161.695312 L 156.921875 164.699219 C 156.144531 166.617188 155.753906 167.796875 155.753906 168.242188 C 155.753906 168.847656 156.242188 169.1875 157.21875 169.261719 L 158.960938 169.375 L 158.960938 170.523438 C 156.957031 170.4375 155.480469 170.394531 154.527344 170.394531 C 153.761719 170.394531 152.328125 170.4375 150.226562 170.523438 L 150.226562 169.375 L 151.617188 169.261719 C 152.46875 169.1875 153.164062 168.527344 153.695312 167.277344 L 163.875 143.875 L 165.117188 143.875 L 174.613281 165.832031 C 175.171875 167.15625 175.625 168.0625 175.984375 168.558594 C 176.355469 169.039062 176.785156 169.289062 177.265625 169.300781 L 178.472656 169.375 L 178.472656 170.523438 C 176.628906 170.4375 175.101562 170.394531 173.890625 170.394531 C 173.125 170.394531 171.289062 170.4375 168.382812 170.523438 L 168.382812 169.375 L 170.367188 169.226562 C 171.257812 169.152344 171.703125 168.898438 171.703125 168.464844 C 171.703125 168.195312 171.5 167.554688 171.089844 166.554688 L 169.125 161.695312 "/>
<path style=" stroke:none;fill-rule:nonzero;fill:rgb(13.729858%,12.159729%,12.548828%);fill-opacity:1;" d="M 180.34375 169.820312 C 180.53125 168.644531 180.621094 167.222656 180.621094 165.554688 L 180.621094 164.089844 L 181.808594 164.089844 L 182.070312 166.351562 C 182.195312 167.351562 182.898438 168.148438 184.183594 168.742188 C 185.46875 169.324219 186.816406 169.617188 188.226562 169.617188 C 190.15625 169.617188 191.804688 169.078125 193.179688 168.003906 C 194.5625 166.914062 195.253906 165.511719 195.253906 163.792969 C 195.253906 162.074219 194.691406 160.84375 193.566406 160.101562 C 192.441406 159.359375 190.699219 158.851562 188.335938 158.582031 C 185.1875 158.171875 183.027344 157.441406 181.867188 156.390625 C 180.703125 155.328125 180.121094 153.851562 180.121094 151.960938 C 180.121094 149.375 181.097656 147.316406 183.050781 145.785156 C 185.003906 144.238281 187.347656 143.464844 190.082031 143.464844 C 191.847656 143.464844 194.117188 143.980469 196.886719 145.003906 C 196.554688 146.785156 196.386719 148.546875 196.386719 150.289062 L 195.144531 150.289062 L 194.941406 148.398438 C 194.828125 147.296875 194.21875 146.46875 193.105469 145.914062 C 191.992188 145.34375 190.65625 145.0625 189.097656 145.0625 C 187.503906 145.0625 186.144531 145.5625 185.019531 146.5625 C 183.894531 147.566406 183.332031 148.898438 183.332031 150.570312 C 183.332031 152.101562 183.863281 153.234375 184.925781 153.960938 C 185.988281 154.679688 187.640625 155.15625 189.878906 155.390625 C 193.152344 155.726562 195.402344 156.390625 196.628906 157.394531 C 197.851562 158.382812 198.464844 159.738281 198.464844 161.457031 C 198.464844 164.460938 197.355469 166.839844 195.144531 168.59375 C 192.941406 170.339844 190.15625 171.210938 186.78125 171.210938 C 184.480469 171.210938 182.335938 170.746094 180.34375 169.820312 "/>
<path style=" stroke:none;fill-rule:nonzero;fill:rgb(13.729858%,12.159729%,12.548828%);fill-opacity:1;" d="M 226.503906 170.523438 C 225.402344 170.4375 224.585938 170.394531 224.054688 170.394531 C 223.460938 170.394531 222.4375 170.4375 220.976562 170.523438 L 207.902344 157.839844 L 207.382812 158.042969 L 207.382812 166.109375 C 207.382812 167.753906 207.613281 168.695312 208.070312 168.929688 C 208.527344 169.152344 209.011719 169.273438 209.515625 169.300781 L 211.167969 169.375 L 211.167969 170.523438 C 208.769531 170.4375 206.902344 170.394531 205.566406 170.394531 C 204.378906 170.394531 202.519531 170.4375 199.984375 170.523438 L 199.984375 169.375 L 201.78125 169.261719 C 202.660156 169.214844 203.210938 168.992188 203.433594 168.59375 C 203.65625 168.1875 203.765625 167.359375 203.765625 166.109375 L 203.765625 148.566406 C 203.765625 147.402344 203.664062 146.601562 203.453125 146.15625 C 203.253906 145.695312 202.667969 145.445312 201.691406 145.394531 L 199.984375 145.300781 L 199.984375 144.152344 C 202.285156 144.238281 204.152344 144.28125 205.585938 144.28125 C 206.945312 144.28125 208.804688 144.238281 211.167969 144.152344 L 211.167969 145.300781 L 209.128906 145.433594 C 208.214844 145.480469 207.691406 145.753906 207.570312 146.246094 C 207.445312 146.742188 207.382812 147.515625 207.382812 148.566406 L 207.382812 156.929688 L 218.046875 146.542969 C 218.726562 145.902344 219.066406 145.457031 219.066406 145.207031 L 219.066406 144.152344 C 220.355469 144.238281 221.453125 144.28125 222.371094 144.28125 C 222.949219 144.28125 223.988281 144.238281 225.484375 144.152344 L 225.484375 145.300781 L 223.945312 145.394531 C 222.957031 145.445312 221.992188 145.902344 221.050781 146.765625 L 210.945312 155.910156 L 223.390625 167.761719 C 223.722656 168.105469 224.148438 168.464844 224.667969 168.835938 C 225.199219 169.195312 225.8125 169.375 226.503906 169.375 L 226.503906 170.523438 "/>
<path style=" stroke:none;fill-rule:nonzero;fill:rgb(13.729858%,12.159729%,12.548828%);fill-opacity:1;" d="M 240.433594 157.542969 L 244.179688 151.589844 C 245.328125 149.757812 246.726562 147.324219 248.371094 144.28125 L 251.410156 144.28125 L 251.410156 144.855469 C 244.882812 152.695312 241.621094 158.03125 241.621094 160.863281 L 241.621094 166.109375 C 241.621094 167.148438 241.710938 167.914062 241.898438 168.410156 C 242.09375 168.90625 242.523438 169.175781 243.179688 169.226562 L 245.402344 169.375 L 245.402344 170.523438 C 243.410156 170.4375 241.546875 170.394531 239.800781 170.394531 C 238.070312 170.394531 236.210938 170.4375 234.21875 170.523438 L 234.21875 169.375 L 236.277344 169.226562 C 237.082031 169.175781 237.570312 168.921875 237.742188 168.464844 C 237.914062 167.996094 238.003906 167.242188 238.003906 166.203125 L 238.003906 160.65625 C 238.003906 159.976562 237.667969 159.082031 237 157.96875 L 232.679688 150.496094 C 231.789062 148.960938 230.972656 147.859375 230.234375 147.191406 C 229.492188 146.527344 228.773438 146.15625 228.082031 146.082031 L 227.023438 145.953125 L 227.023438 144.800781 C 229.929688 144.171875 231.449219 143.855469 231.585938 143.855469 C 231.90625 143.855469 232.445312 144.289062 233.199219 145.152344 C 233.964844 146.007812 234.777344 147.21875 235.628906 148.789062 L 240.433594 157.542969 "/>
<path style=" stroke:none;fill-rule:nonzero;fill:rgb(13.729858%,12.159729%,12.548828%);fill-opacity:1;" d="M 260.296875 168.503906 C 261.097656 168.699219 262.402344 168.796875 264.207031 168.796875 C 267.457031 168.796875 269.828125 168.632812 271.3125 168.296875 C 271.730469 168.199219 272.078125 167.59375 272.347656 166.480469 L 272.996094 163.867188 L 274.242188 163.867188 C 274.078125 165.425781 273.8125 167.597656 273.445312 170.394531 C 270.390625 170.480469 267.902344 170.523438 265.988281 170.523438 C 265.257812 170.523438 264.300781 170.503906 263.113281 170.46875 C 261.9375 170.417969 260.914062 170.394531 260.035156 170.394531 C 258.339844 170.394531 256.511719 170.4375 254.546875 170.523438 L 254.546875 169.652344 C 255.375 169.257812 255.9375 168.898438 256.234375 168.578125 C 256.53125 168.257812 256.675781 167.722656 256.675781 166.980469 L 256.675781 148.4375 C 256.675781 147.359375 256.585938 146.59375 256.398438 146.136719 C 256.226562 145.679688 255.660156 145.425781 254.691406 145.375 L 252.894531 145.300781 L 252.894531 144.152344 C 254.886719 144.238281 256.753906 144.28125 258.496094 144.28125 C 260.238281 144.28125 262.097656 144.238281 264.078125 144.152344 L 264.078125 145.300781 L 262.113281 145.394531 C 261.195312 145.417969 260.664062 145.691406 260.515625 146.210938 C 260.367188 146.730469 260.296875 147.515625 260.296875 148.566406 L 260.296875 168.503906 "/>
<path style=" stroke:none;fill-rule:nonzero;fill:rgb(13.729858%,12.159729%,12.548828%);fill-opacity:1;" d="M 292.191406 139.238281 C 292.191406 138.632812 292.371094 138.15625 292.730469 137.808594 C 293.101562 137.464844 293.570312 137.289062 294.140625 137.289062 C 294.683594 137.289062 295.128906 137.464844 295.476562 137.808594 C 295.820312 138.15625 295.996094 138.601562 295.996094 139.144531 C 295.996094 139.6875 295.816406 140.152344 295.457031 140.535156 C 295.097656 140.90625 294.628906 141.09375 294.046875 141.09375 C 293.515625 141.09375 293.070312 140.925781 292.710938 140.589844 C 292.367188 140.246094 292.191406 139.792969 292.191406 139.238281 Z M 284.53125 139.238281 C 284.53125 138.730469 284.695312 138.28125 285.015625 137.882812 C 285.351562 137.488281 285.835938 137.289062 286.480469 137.289062 C 287 137.289062 287.4375 137.457031 287.796875 137.789062 C 288.15625 138.125 288.335938 138.574219 288.335938 139.144531 C 288.335938 139.6875 288.15625 140.152344 287.796875 140.535156 C 287.4375 140.90625 286.96875 141.09375 286.386719 141.09375 C 285.855469 141.09375 285.410156 140.917969 285.050781 140.574219 C 284.707031 140.214844 284.53125 139.769531 284.53125 139.238281 Z M 284.347656 160.25 L 294.011719 160.25 L 289.132812 148.957031 Z M 294.714844 161.695312 L 283.679688 161.695312 L 282.511719 164.699219 C 281.734375 166.617188 281.34375 167.796875 281.34375 168.242188 C 281.34375 168.847656 281.832031 169.1875 282.808594 169.261719 L 284.550781 169.375 L 284.550781 170.523438 C 282.550781 170.4375 281.070312 170.394531 280.121094 170.394531 C 279.351562 170.394531 277.917969 170.4375 275.816406 170.523438 L 275.816406 169.375 L 277.207031 169.261719 C 278.0625 169.1875 278.753906 168.527344 279.285156 167.277344 L 289.464844 143.875 L 290.710938 143.875 L 300.203125 165.832031 C 300.761719 167.15625 301.21875 168.0625 301.578125 168.558594 C 301.949219 169.039062 302.375 169.289062 302.859375 169.300781 L 304.0625 169.375 L 304.0625 170.523438 C 302.21875 170.4375 300.695312 170.394531 299.480469 170.394531 C 298.714844 170.394531 296.878906 170.4375 293.972656 170.523438 L 293.972656 169.375 L 295.957031 169.226562 C 296.847656 169.152344 297.292969 168.898438 297.292969 168.464844 C 297.292969 168.195312 297.089844 167.554688 296.679688 166.554688 L 294.714844 161.695312 "/>
<path style=" stroke:none;fill-rule:nonzero;fill:rgb(13.729858%,12.159729%,12.548828%);fill-opacity:1;" d="M 310.777344 148.289062 L 310.777344 166.109375 C 310.777344 167.582031 310.910156 168.464844 311.183594 168.761719 C 311.453125 169.046875 311.9375 169.214844 312.628906 169.261719 L 314.390625 169.375 L 314.390625 170.523438 C 312.414062 170.4375 310.941406 170.394531 309.976562 170.394531 C 308.902344 170.394531 307.378906 170.4375 305.414062 170.523438 L 305.414062 169.375 L 306.882812 169.261719 C 307.671875 169.214844 308.226562 169.046875 308.550781 168.761719 C 308.871094 168.464844 309.03125 167.582031 309.03125 166.109375 L 309.03125 148.566406 C 309.03125 147.109375 308.890625 146.234375 308.605469 145.953125 C 308.332031 145.652344 307.863281 145.480469 307.195312 145.433594 L 305.414062 145.300781 L 305.414062 144.152344 C 307.109375 144.238281 308.320312 144.28125 309.050781 144.28125 C 309.617188 144.28125 310.609375 144.238281 312.015625 144.152344 L 330.394531 166.683594 L 330.394531 148.566406 C 330.394531 147.378906 330.308594 146.570312 330.136719 146.136719 C 329.976562 145.691406 329.4375 145.445312 328.523438 145.394531 L 326.78125 145.300781 L 326.78125 144.152344 C 328.746094 144.238281 330.214844 144.28125 331.195312 144.28125 C 332.257812 144.28125 333.777344 144.238281 335.757812 144.152344 L 335.757812 145.300781 L 334.199219 145.394531 C 333.296875 145.445312 332.726562 145.640625 332.492188 145.988281 C 332.257812 146.320312 332.136719 147.183594 332.136719 148.566406 L 332.136719 169.617188 C 332.136719 170.035156 332.175781 170.566406 332.25 171.210938 L 328.820312 170.617188 L 310.777344 148.289062 "/>
<path style=" stroke:none;fill-rule:nonzero;fill:rgb(13.729858%,12.159729%,12.548828%);fill-opacity:1;" d="M 359.566406 157.542969 L 363.3125 151.589844 C 364.464844 149.757812 365.859375 147.324219 367.507812 144.28125 L 370.546875 144.28125 L 370.546875 144.855469 C 364.019531 152.695312 360.757812 158.03125 360.757812 160.863281 L 360.757812 166.109375 C 360.757812 167.148438 360.847656 167.914062 361.03125 168.410156 C 361.230469 168.90625 361.65625 169.175781 362.3125 169.226562 L 364.539062 169.375 L 364.539062 170.523438 C 362.546875 170.4375 360.679688 170.394531 358.9375 170.394531 C 357.207031 170.394531 355.347656 170.4375 353.355469 170.523438 L 353.355469 169.375 L 355.414062 169.226562 C 356.21875 169.175781 356.707031 168.921875 356.878906 168.464844 C 357.054688 167.996094 357.140625 167.242188 357.140625 166.203125 L 357.140625 160.65625 C 357.140625 159.976562 356.804688 159.082031 356.136719 157.96875 L 351.816406 150.496094 C 350.925781 148.960938 350.109375 147.859375 349.367188 147.191406 C 348.625 146.527344 347.910156 146.15625 347.21875 146.082031 L 346.160156 145.953125 L 346.160156 144.800781 C 349.066406 144.171875 350.585938 143.855469 350.722656 143.855469 C 351.042969 143.855469 351.582031 144.289062 352.335938 145.152344 C 353.105469 146.007812 353.914062 147.21875 354.765625 148.789062 L 359.566406 157.542969 "/>
<path style=" stroke:none;fill-rule:nonzero;fill:rgb(13.729858%,12.159729%,12.548828%);fill-opacity:1;" d="M 379.433594 168.503906 C 380.234375 168.699219 381.539062 168.796875 383.34375 168.796875 C 386.59375 168.796875 388.964844 168.632812 390.445312 168.296875 C 390.867188 168.199219 391.214844 167.59375 391.484375 166.480469 L 392.136719 163.867188 L 393.378906 163.867188 C 393.214844 165.425781 392.949219 167.597656 392.578125 170.394531 C 389.527344 170.480469 387.039062 170.523438 385.125 170.523438 C 384.394531 170.523438 383.4375 170.503906 382.25 170.46875 C 381.074219 170.417969 380.046875 170.394531 379.171875 170.394531 C 377.476562 170.394531 375.648438 170.4375 373.679688 170.523438 L 373.679688 169.652344 C 374.511719 169.257812 375.074219 168.898438 375.371094 168.578125 C 375.667969 168.257812 375.8125 167.722656 375.8125 166.980469 L 375.8125 148.4375 C 375.8125 147.359375 375.722656 146.59375 375.539062 146.136719 C 375.363281 145.679688 374.796875 145.425781 373.828125 145.375 L 372.03125 145.300781 L 372.03125 144.152344 C 374.023438 144.238281 375.886719 144.28125 377.632812 144.28125 C 379.375 144.28125 381.238281 144.238281 383.214844 144.152344 L 383.214844 145.300781 L 381.25 145.394531 C 380.332031 145.417969 379.800781 145.691406 379.65625 146.210938 C 379.503906 146.730469 379.433594 147.515625 379.433594 148.566406 L 379.433594 168.503906 "/>
<path style=" stroke:none;fill-rule:nonzero;fill:rgb(13.729858%,12.159729%,12.548828%);fill-opacity:1;" d="M 395.230469 169.375 L 396.9375 169.261719 C 397.851562 169.214844 398.429688 169.015625 398.660156 168.667969 C 398.898438 168.3125 399.015625 167.453125 399.015625 166.09375 L 399.015625 148.546875 C 399.015625 147.644531 398.945312 146.914062 398.808594 146.359375 C 398.6875 145.789062 398.144531 145.480469 397.179688 145.433594 L 395.230469 145.300781 L 395.230469 144.152344 C 397.222656 144.238281 399.089844 144.28125 400.832031 144.28125 C 402.574219 144.28125 404.433594 144.238281 406.414062 144.152344 L 406.414062 145.300781 L 404.503906 145.46875 C 403.527344 145.542969 402.96875 145.828125 402.835938 146.320312 C 402.699219 146.816406 402.632812 147.570312 402.632812 148.585938 L 402.632812 166.128906 C 402.632812 167.671875 402.777344 168.570312 403.074219 168.816406 C 403.386719 169.066406 403.890625 169.214844 404.597656 169.261719 L 406.414062 169.375 L 406.414062 170.523438 C 404.015625 170.4375 402.148438 170.394531 400.8125 170.394531 C 399.304688 170.394531 397.445312 170.4375 395.230469 170.523438 L 395.230469 169.375 "/>
<path style=" stroke:none;fill-rule:nonzero;fill:rgb(13.729858%,12.159729%,12.548828%);fill-opacity:1;" d="M 412.050781 155.800781 C 412.050781 160.050781 413.035156 163.421875 415.003906 165.90625 C 416.964844 168.378906 419.507812 169.617188 422.625 169.617188 C 425.652344 169.617188 427.980469 168.566406 429.617188 166.460938 C 431.257812 164.347656 432.082031 161.367188 432.082031 157.523438 C 432.082031 153.542969 431.183594 150.472656 429.394531 148.308594 C 427.597656 146.144531 425.054688 145.0625 421.75 145.0625 C 418.757812 145.0625 416.390625 146.011719 414.648438 147.917969 C 412.917969 149.820312 412.050781 152.449219 412.050781 155.800781 Z M 408.046875 157.449219 C 408.046875 153.382812 409.324219 150.039062 411.886719 147.414062 C 414.445312 144.78125 417.691406 143.464844 421.625 143.464844 C 425.910156 143.464844 429.394531 144.554688 432.0625 146.730469 C 434.746094 148.894531 436.085938 152.101562 436.085938 156.355469 C 436.085938 160.460938 434.714844 163.964844 431.96875 166.871094 C 429.238281 169.761719 425.683594 171.210938 421.304688 171.210938 C 417.324219 171.210938 414.117188 169.949219 411.679688 167.425781 C 409.257812 164.902344 408.046875 161.578125 408.046875 157.449219 "/>
<path style=" stroke:none;fill-rule:nonzero;fill:rgb(13.729858%,12.159729%,12.548828%);fill-opacity:1;" d="M 445.285156 146.191406 L 445.285156 166.109375 C 445.285156 167.335938 445.402344 168.164062 445.640625 168.59375 C 445.886719 169.015625 446.527344 169.25 447.566406 169.300781 L 449.070312 169.375 L 449.070312 170.523438 C 447.078125 170.4375 445.210938 170.394531 443.46875 170.394531 C 441.738281 170.394531 439.875 170.4375 437.886719 170.523438 L 437.886719 169.375 L 439.777344 169.226562 C 440.496094 169.175781 440.988281 169.007812 441.261719 168.726562 C 441.535156 168.429688 441.671875 167.554688 441.671875 166.109375 L 441.671875 148.566406 C 441.671875 147.21875 441.523438 146.378906 441.226562 146.042969 C 440.941406 145.710938 440.457031 145.519531 439.777344 145.46875 L 437.886719 145.300781 L 437.886719 144.152344 C 440.433594 144.238281 442.683594 144.28125 444.636719 144.28125 C 445.613281 144.28125 446.835938 144.261719 448.308594 144.226562 C 449.792969 144.179688 450.867188 144.152344 451.535156 144.152344 C 453.835938 144.152344 455.691406 144.679688 457.097656 145.730469 C 458.519531 146.765625 459.230469 148.214844 459.230469 150.066406 C 459.230469 152.429688 458.316406 154.371094 456.488281 155.890625 C 454.671875 157.398438 452.476562 158.152344 449.90625 158.152344 C 449.1875 158.152344 448.449219 158.078125 447.699219 157.933594 L 447.308594 156.46875 C 448.109375 156.714844 448.945312 156.835938 449.808594 156.835938 C 451.457031 156.835938 452.800781 156.300781 453.855469 155.222656 C 454.917969 154.136719 455.449219 152.78125 455.449219 151.164062 C 455.449219 147.550781 453.265625 145.746094 448.902344 145.746094 C 447.714844 145.746094 446.507812 145.894531 445.285156 146.191406 "/>
<path style=" stroke:none;fill-rule:nonzero;fill:rgb(13.729858%,12.159729%,12.548828%);fill-opacity:1;" d="M 460.824219 169.375 L 462.535156 169.261719 C 463.449219 169.214844 464.023438 169.015625 464.257812 168.667969 C 464.492188 168.3125 464.609375 167.453125 464.609375 166.09375 L 464.609375 148.546875 C 464.609375 147.644531 464.542969 146.914062 464.40625 146.359375 C 464.28125 145.789062 463.738281 145.480469 462.773438 145.433594 L 460.824219 145.300781 L 460.824219 144.152344 C 462.816406 144.238281 464.683594 144.28125 466.429688 144.28125 C 468.171875 144.28125 470.03125 144.238281 472.007812 144.152344 L 472.007812 145.300781 L 470.101562 145.46875 C 469.121094 145.542969 468.566406 145.828125 468.429688 146.320312 C 468.292969 146.816406 468.226562 147.570312 468.226562 148.585938 L 468.226562 166.128906 C 468.226562 167.671875 468.375 168.570312 468.671875 168.816406 C 468.980469 169.066406 469.488281 169.214844 470.191406 169.261719 L 472.007812 169.375 L 472.007812 170.523438 C 469.609375 170.4375 467.746094 170.394531 466.410156 170.394531 C 464.898438 170.394531 463.042969 170.4375 460.824219 170.523438 L 460.824219 169.375 "/>
<path style=" stroke:none;fill-rule:nonzero;fill:rgb(13.729858%,12.159729%,12.548828%);fill-opacity:1;" d="M 473.921875 169.820312 C 474.105469 168.644531 474.199219 167.222656 474.199219 165.554688 L 474.199219 164.089844 L 475.382812 164.089844 L 475.644531 166.351562 C 475.769531 167.351562 476.472656 168.148438 477.757812 168.742188 C 479.046875 169.324219 480.390625 169.617188 481.800781 169.617188 C 483.730469 169.617188 485.382812 169.078125 486.753906 168.003906 C 488.136719 166.914062 488.832031 165.511719 488.832031 163.792969 C 488.832031 162.074219 488.269531 160.84375 487.144531 160.101562 C 486.015625 159.359375 484.273438 158.851562 481.914062 158.582031 C 478.761719 158.171875 476.601562 157.441406 475.441406 156.390625 C 474.277344 155.328125 473.695312 153.851562 473.695312 151.960938 C 473.695312 149.375 474.675781 147.316406 476.628906 145.785156 C 478.582031 144.238281 480.925781 143.464844 483.65625 143.464844 C 485.425781 143.464844 487.691406 143.980469 490.460938 145.003906 C 490.128906 146.785156 489.960938 148.546875 489.960938 150.289062 L 488.71875 150.289062 L 488.515625 148.398438 C 488.402344 147.296875 487.792969 146.46875 486.679688 145.914062 C 485.566406 145.34375 484.230469 145.0625 482.675781 145.0625 C 481.078125 145.0625 479.71875 145.5625 478.59375 146.5625 C 477.46875 147.566406 476.90625 148.898438 476.90625 150.570312 C 476.90625 152.101562 477.4375 153.234375 478.5 153.960938 C 479.566406 154.679688 481.214844 155.15625 483.453125 155.390625 C 486.730469 155.726562 488.980469 156.390625 490.203125 157.394531 C 491.429688 158.382812 492.039062 159.738281 492.039062 161.457031 C 492.039062 164.460938 490.933594 166.839844 488.71875 168.59375 C 486.519531 170.339844 483.730469 171.210938 480.355469 171.210938 C 478.054688 171.210938 475.910156 170.746094 473.921875 169.820312 "/>
<path style=" stroke:none;fill-rule:nonzero;fill:rgb(13.729858%,12.159729%,12.548828%);fill-opacity:1;" d="M 506.316406 146.101562 C 506.207031 147.175781 506.152344 148.449219 506.152344 149.921875 L 506.152344 166.109375 C 506.152344 167.605469 506.304688 168.503906 506.613281 168.796875 C 506.9375 169.085938 507.40625 169.238281 508.027344 169.261719 L 509.9375 169.375 L 509.9375 170.523438 C 507.945312 170.4375 506.078125 170.394531 504.335938 170.394531 C 502.601562 170.394531 500.742188 170.4375 498.753906 170.523438 L 498.753906 169.375 L 500.625 169.261719 C 501.355469 169.214844 501.855469 169.035156 502.128906 168.726562 C 502.398438 168.402344 502.535156 167.53125 502.535156 166.109375 L 502.535156 149.847656 C 502.535156 148.351562 502.480469 147.101562 502.367188 146.101562 L 496.75 146.101562 C 496.007812 146.101562 495.539062 146.191406 495.339844 146.378906 C 495.140625 146.5625 495.03125 146.902344 495.007812 147.398438 L 494.875 150.21875 L 493.632812 150.21875 C 493.632812 148.015625 493.542969 145.992188 493.355469 144.152344 C 496.976562 144.238281 499.636719 144.28125 501.332031 144.28125 L 507.394531 144.28125 C 508.816406 144.28125 511.460938 144.238281 515.332031 144.152344 C 515.144531 145.992188 515.054688 148.015625 515.054688 150.21875 L 513.8125 150.21875 L 513.699219 147.472656 C 513.675781 146.902344 513.539062 146.53125 513.292969 146.359375 C 513.058594 146.1875 512.605469 146.101562 511.9375 146.101562 L 506.316406 146.101562 "/>
<path style=" stroke:none;fill-rule:nonzero;fill:rgb(13.729858%,12.159729%,12.548828%);fill-opacity:1;" d="M 520.859375 155.800781 C 520.859375 160.050781 521.84375 163.421875 523.808594 165.90625 C 525.773438 168.378906 528.316406 169.617188 531.429688 169.617188 C 534.460938 169.617188 536.789062 168.566406 538.421875 166.460938 C 540.066406 164.347656 540.886719 161.367188 540.886719 157.523438 C 540.886719 153.542969 539.992188 150.472656 538.199219 148.308594 C 536.40625 146.144531 533.859375 145.0625 530.558594 145.0625 C 527.566406 145.0625 525.199219 146.011719 523.453125 147.917969 C 521.722656 149.820312 520.859375 152.449219 520.859375 155.800781 Z M 516.851562 157.449219 C 516.851562 153.382812 518.132812 150.039062 520.691406 147.414062 C 523.25 144.78125 526.496094 143.464844 530.429688 143.464844 C 534.71875 143.464844 538.199219 144.554688 540.871094 146.730469 C 543.550781 148.894531 544.894531 152.101562 544.894531 156.355469 C 544.894531 160.460938 543.519531 163.964844 540.777344 166.871094 C 538.042969 169.761719 534.488281 171.210938 530.113281 171.210938 C 526.132812 171.210938 522.921875 169.949219 520.488281 167.425781 C 518.066406 164.902344 516.851562 161.578125 516.851562 157.449219 "/>
<path style=" stroke:none;fill-rule:nonzero;fill:rgb(13.729858%,12.159729%,12.548828%);fill-opacity:1;" d="M 88.847656 195.667969 L 88.847656 194.519531 C 90.835938 194.605469 92.703125 194.648438 94.449219 194.648438 C 96.191406 194.648438 98.050781 194.605469 100.03125 194.519531 L 100.03125 195.667969 L 97.988281 195.835938 C 97.210938 195.882812 96.722656 196.125 96.523438 196.558594 C 96.339844 196.980469 96.246094 197.789062 96.246094 198.988281 L 96.246094 212.359375 C 96.246094 214.585938 96.820312 216.289062 97.96875 217.476562 C 99.121094 218.652344 101.15625 219.238281 104.070312 219.238281 C 109.363281 219.238281 112.011719 216.597656 112.011719 211.320312 L 112.011719 198.96875 C 112.011719 197.558594 111.875 196.695312 111.601562 196.371094 C 111.332031 196.039062 110.816406 195.847656 110.0625 195.796875 L 108.394531 195.667969 L 108.394531 194.519531 C 110.371094 194.605469 111.878906 194.648438 112.917969 194.648438 C 113.894531 194.648438 115.378906 194.605469 117.371094 194.519531 L 117.371094 195.667969 L 115.386719 195.835938 C 114.46875 195.910156 113.96875 196.285156 113.882812 196.964844 C 113.796875 197.644531 113.753906 198.394531 113.753906 199.210938 L 113.753906 210.132812 C 113.753906 214.128906 112.941406 217.03125 111.324219 218.847656 C 109.703125 220.667969 106.941406 221.574219 103.035156 221.574219 C 99.078125 221.574219 96.351562 220.796875 94.855469 219.238281 C 93.371094 217.667969 92.628906 215.414062 92.628906 212.46875 L 92.628906 198.949219 C 92.628906 197.738281 92.542969 196.921875 92.371094 196.503906 C 92.195312 196.082031 91.648438 195.847656 90.71875 195.796875 L 88.847656 195.667969 "/>
<path style=" stroke:none;fill-rule:nonzero;fill:rgb(13.729858%,12.159729%,12.548828%);fill-opacity:1;" d="M 123.917969 198.652344 L 123.917969 216.476562 C 123.917969 217.945312 124.050781 218.832031 124.324219 219.128906 C 124.59375 219.414062 125.078125 219.578125 125.769531 219.628906 L 127.53125 219.742188 L 127.53125 220.890625 C 125.554688 220.800781 124.082031 220.757812 123.117188 220.757812 C 122.042969 220.757812 120.523438 220.800781 118.554688 220.890625 L 118.554688 219.742188 L 120.019531 219.628906 C 120.8125 219.578125 121.367188 219.414062 121.691406 219.128906 C 122.011719 218.832031 122.171875 217.945312 122.171875 216.476562 L 122.171875 198.933594 C 122.171875 197.472656 122.03125 196.601562 121.746094 196.316406 C 121.472656 196.019531 121.003906 195.847656 120.335938 195.796875 L 118.554688 195.667969 L 118.554688 194.519531 C 120.25 194.605469 121.460938 194.648438 122.191406 194.648438 C 122.757812 194.648438 123.75 194.605469 125.15625 194.519531 L 143.535156 217.050781 L 143.535156 198.933594 C 143.535156 197.746094 143.449219 196.9375 143.277344 196.503906 C 143.117188 196.058594 142.578125 195.808594 141.664062 195.761719 L 139.921875 195.667969 L 139.921875 194.519531 C 141.886719 194.605469 143.359375 194.648438 144.335938 194.648438 C 145.398438 194.648438 146.917969 194.605469 148.898438 194.519531 L 148.898438 195.667969 L 147.339844 195.761719 C 146.4375 195.808594 145.867188 196.007812 145.632812 196.355469 C 145.398438 196.6875 145.28125 197.546875 145.28125 198.933594 L 145.28125 219.980469 C 145.28125 220.402344 145.316406 220.933594 145.390625 221.574219 L 141.960938 220.984375 L 123.917969 198.652344 "/>
<path style=" stroke:none;fill-rule:nonzero;fill:rgb(13.729858%,12.159729%,12.548828%);fill-opacity:1;" d="M 150.34375 219.742188 L 152.050781 219.628906 C 152.964844 219.578125 153.539062 219.378906 153.773438 219.035156 C 154.011719 218.675781 154.125 217.816406 154.125 216.457031 L 154.125 198.914062 C 154.125 198.011719 154.058594 197.28125 153.921875 196.726562 C 153.800781 196.15625 153.253906 195.847656 152.289062 195.796875 L 150.34375 195.667969 L 150.34375 194.519531 C 152.335938 194.605469 154.199219 194.648438 155.945312 194.648438 C 157.6875 194.648438 159.546875 194.605469 161.527344 194.519531 L 161.527344 195.667969 L 159.617188 195.835938 C 158.640625 195.910156 158.082031 196.191406 157.949219 196.6875 C 157.808594 197.183594 157.742188 197.9375 157.742188 198.949219 L 157.742188 216.496094 C 157.742188 218.039062 157.890625 218.9375 158.1875 219.183594 C 158.496094 219.429688 159.003906 219.578125 159.710938 219.628906 L 161.527344 219.742188 L 161.527344 220.890625 C 159.128906 220.800781 157.261719 220.757812 155.925781 220.757812 C 154.417969 220.757812 152.558594 220.800781 150.34375 220.890625 L 150.34375 219.742188 "/>
<path style=" stroke:none;fill-rule:nonzero;fill:rgb(13.729858%,12.159729%,12.548828%);fill-opacity:1;" d="M 175.046875 221.167969 C 174.75 220.140625 171.894531 212.820312 166.476562 199.210938 C 165.910156 197.75 165.464844 196.835938 165.140625 196.464844 C 164.832031 196.09375 164.34375 195.863281 163.679688 195.777344 L 162.582031 195.667969 L 162.582031 194.519531 C 164.574219 194.605469 166.101562 194.648438 167.164062 194.648438 C 168.523438 194.648438 170.359375 194.605469 172.671875 194.519531 L 172.671875 195.667969 L 170.746094 195.796875 C 169.816406 195.847656 169.351562 196.070312 169.351562 196.464844 C 169.351562 196.675781 169.582031 197.347656 170.039062 198.488281 L 176.957031 216.289062 L 183.039062 200.339844 C 183.792969 198.339844 184.171875 197.1875 184.171875 196.890625 C 184.171875 196.1875 183.566406 195.808594 182.351562 195.761719 L 180.832031 195.667969 L 180.832031 194.519531 C 182.898438 194.605469 184.3125 194.648438 185.078125 194.648438 C 186.265625 194.648438 187.59375 194.605469 189.066406 194.519531 L 189.066406 195.667969 L 187.992188 195.796875 C 187.296875 195.871094 186.707031 196.527344 186.210938 197.761719 C 184.40625 202.089844 182.519531 206.636719 180.554688 211.394531 C 178.601562 216.15625 177.382812 219.414062 176.902344 221.167969 L 175.046875 221.167969 "/>
<path style=" stroke:none;fill-rule:nonzero;fill:rgb(13.729858%,12.159729%,12.548828%);fill-opacity:1;" d="M 197.96875 208.390625 L 197.855469 218.867188 C 198.6875 219.066406 200.039062 219.164062 201.917969 219.164062 C 204.328125 219.164062 206.574219 219.035156 208.652344 218.777344 C 209.292969 218.703125 209.75 217.941406 210.023438 216.496094 L 210.375 214.527344 L 211.617188 214.527344 C 211.210938 217.011719 211.007812 219.089844 211.007812 220.757812 C 207.628906 220.847656 205.238281 220.890625 203.828125 220.890625 C 203.125 220.890625 202.132812 220.871094 200.859375 220.832031 C 199.589844 220.785156 198.5625 220.757812 197.78125 220.757812 C 195.261719 220.757812 193.011719 220.800781 191.03125 220.890625 L 191.03125 219.742188 C 192.453125 219.617188 193.363281 219.472656 193.757812 219.3125 C 194.152344 219.152344 194.351562 218.101562 194.351562 216.160156 L 194.351562 198.785156 C 194.351562 197.089844 194.042969 196.148438 193.425781 195.964844 C 192.804688 195.765625 191.871094 195.667969 190.625 195.667969 L 190.625 194.519531 C 192.589844 194.605469 194.578125 194.648438 196.597656 194.648438 C 197.78125 194.648438 199.5 194.628906 201.75 194.59375 C 204 194.542969 205.453125 194.519531 206.109375 194.519531 C 207.890625 194.519531 209.523438 194.5625 211.007812 194.648438 C 210.597656 196.242188 210.394531 198.121094 210.394531 200.285156 L 209.09375 200.285156 L 209.09375 197.96875 C 209.09375 197.238281 208.433594 196.769531 207.109375 196.558594 C 205.800781 196.347656 203.796875 196.242188 201.101562 196.242188 C 199.769531 196.242188 198.6875 196.339844 197.855469 196.539062 L 197.96875 206.535156 C 199.179688 206.621094 200.644531 206.664062 202.363281 206.664062 C 205.046875 206.664062 206.429688 206.472656 206.515625 206.089844 C 206.601562 205.707031 206.726562 204.710938 206.886719 203.105469 L 208.132812 203.105469 L 208.019531 207.5 C 208.019531 207.625 208.054688 209.0625 208.132812 211.820312 L 206.886719 211.820312 C 206.753906 210.375 206.640625 209.421875 206.554688 208.964844 C 206.46875 208.496094 205.113281 208.261719 202.492188 208.261719 C 200.253906 208.261719 198.746094 208.304688 197.96875 208.390625 "/>
<path style=" stroke:none;fill-rule:nonzero;fill:rgb(13.729858%,12.159729%,12.548828%);fill-opacity:1;" d="M 227.476562 207.574219 L 236.003906 218.738281 C 236.289062 219.144531 236.625 219.414062 237.007812 219.535156 C 237.390625 219.660156 237.820312 219.722656 238.304688 219.722656 L 238.304688 220.890625 C 237.253906 220.800781 236.359375 220.757812 235.613281 220.757812 C 234.847656 220.757812 233.976562 220.800781 233 220.890625 C 231.738281 219.246094 229.867188 216.722656 227.382812 213.324219 C 224.894531 209.910156 223.277344 207.84375 222.523438 207.128906 L 222.761719 206.683594 C 223.332031 206.734375 223.769531 206.757812 224.082031 206.757812 C 225.996094 206.757812 227.632812 206.261719 228.996094 205.273438 C 230.355469 204.273438 231.035156 202.925781 231.035156 201.230469 C 231.035156 197.820312 228.941406 196.113281 224.746094 196.113281 C 223.574219 196.113281 222.378906 196.261719 221.167969 196.558594 L 221.167969 216.585938 C 221.167969 217.785156 221.304688 218.589844 221.578125 219 C 221.859375 219.40625 222.484375 219.628906 223.449219 219.664062 L 224.953125 219.742188 L 224.953125 220.890625 C 222.960938 220.800781 221.09375 220.757812 219.351562 220.757812 C 217.621094 220.757812 215.761719 220.800781 213.769531 220.890625 L 213.769531 219.742188 L 215.511719 219.628906 C 216.464844 219.578125 217.039062 219.289062 217.238281 218.757812 C 217.449219 218.226562 217.550781 217.464844 217.550781 216.476562 L 217.550781 198.933594 C 217.550781 197.632812 217.410156 196.789062 217.125 196.390625 C 216.855469 195.996094 216.359375 195.785156 215.640625 195.761719 L 214.066406 195.667969 L 214.066406 194.519531 C 216.476562 194.605469 218.609375 194.648438 220.464844 194.648438 C 221.476562 194.648438 222.675781 194.628906 224.0625 194.59375 C 225.445312 194.542969 226.546875 194.519531 227.363281 194.519531 C 229.796875 194.519531 231.648438 194.992188 232.90625 195.945312 C 234.179688 196.898438 234.820312 198.289062 234.820312 200.117188 C 234.820312 202.011719 234.113281 203.628906 232.703125 204.976562 C 231.292969 206.324219 229.550781 207.191406 227.476562 207.574219 "/>
<path style=" stroke:none;fill-rule:nonzero;fill:rgb(13.729858%,12.159729%,12.548828%);fill-opacity:1;" d="M 239.4375 220.183594 C 239.621094 219.011719 239.714844 217.589844 239.714844 215.921875 L 239.714844 214.453125 L 240.898438 214.453125 L 241.160156 216.714844 C 241.285156 217.71875 241.988281 218.515625 243.273438 219.109375 C 244.5625 219.691406 245.90625 219.980469 247.316406 219.980469 C 249.246094 219.980469 250.898438 219.441406 252.269531 218.367188 C 253.652344 217.28125 254.34375 215.878906 254.34375 214.15625 C 254.34375 212.4375 253.785156 211.210938 252.660156 210.464844 C 251.53125 209.726562 249.789062 209.21875 247.429688 208.945312 C 244.277344 208.539062 242.117188 207.808594 240.957031 206.757812 C 239.792969 205.695312 239.210938 204.21875 239.210938 202.324219 C 239.210938 199.742188 240.191406 197.683594 242.144531 196.148438 C 244.097656 194.605469 246.4375 193.832031 249.171875 193.832031 C 250.941406 193.832031 253.207031 194.34375 255.976562 195.371094 C 255.644531 197.152344 255.476562 198.914062 255.476562 200.65625 L 254.234375 200.65625 L 254.03125 198.765625 C 253.921875 197.664062 253.308594 196.835938 252.195312 196.28125 C 251.082031 195.710938 249.746094 195.425781 248.1875 195.425781 C 246.59375 195.425781 245.234375 195.929688 244.109375 196.929688 C 242.984375 197.929688 242.421875 199.265625 242.421875 200.933594 C 242.421875 202.46875 242.953125 203.597656 244.015625 204.328125 C 245.078125 205.046875 246.730469 205.523438 248.96875 205.757812 C 252.246094 206.089844 254.496094 206.757812 255.71875 207.761719 C 256.941406 208.75 257.554688 210.101562 257.554688 211.820312 C 257.554688 214.824219 256.449219 217.207031 254.234375 218.960938 C 252.035156 220.703125 249.246094 221.574219 245.871094 221.574219 C 243.570312 221.574219 241.425781 221.113281 239.4375 220.183594 "/>
<path style=" stroke:none;fill-rule:nonzero;fill:rgb(13.729858%,12.159729%,12.548828%);fill-opacity:1;" d="M 259.074219 219.742188 L 260.78125 219.628906 C 261.699219 219.578125 262.273438 219.378906 262.507812 219.035156 C 262.742188 218.675781 262.859375 217.816406 262.859375 216.457031 L 262.859375 198.914062 C 262.859375 198.011719 262.792969 197.28125 262.65625 196.726562 C 262.53125 196.15625 261.988281 195.847656 261.023438 195.796875 L 259.074219 195.667969 L 259.074219 194.519531 C 261.066406 194.605469 262.933594 194.648438 264.675781 194.648438 C 266.421875 194.648438 268.28125 194.605469 270.257812 194.519531 L 270.257812 195.667969 L 268.347656 195.835938 C 267.371094 195.910156 266.816406 196.191406 266.679688 196.6875 C 266.542969 197.183594 266.476562 197.9375 266.476562 198.949219 L 266.476562 216.496094 C 266.476562 218.039062 266.625 218.9375 266.921875 219.183594 C 267.230469 219.429688 267.738281 219.578125 268.441406 219.628906 L 270.257812 219.742188 L 270.257812 220.890625 C 267.859375 220.800781 265.996094 220.757812 264.660156 220.757812 C 263.148438 220.757812 261.289062 220.800781 259.074219 220.890625 L 259.074219 219.742188 "/>
<path style=" stroke:none;fill-rule:nonzero;fill:rgb(13.729858%,12.159729%,12.548828%);fill-opacity:1;" d="M 284.632812 196.464844 C 284.519531 197.539062 284.464844 198.8125 284.464844 200.285156 L 284.464844 216.476562 C 284.464844 217.972656 284.617188 218.867188 284.929688 219.164062 C 285.25 219.449219 285.71875 219.605469 286.335938 219.628906 L 288.246094 219.742188 L 288.246094 220.890625 C 286.257812 220.800781 284.390625 220.757812 282.648438 220.757812 C 280.914062 220.757812 279.054688 220.800781 277.066406 220.890625 L 277.066406 219.742188 L 278.9375 219.628906 C 279.667969 219.578125 280.167969 219.398438 280.441406 219.089844 C 280.710938 218.769531 280.847656 217.898438 280.847656 216.476562 L 280.847656 200.210938 C 280.847656 198.714844 280.792969 197.464844 280.679688 196.464844 L 275.0625 196.464844 C 274.320312 196.464844 273.851562 196.558594 273.652344 196.742188 C 273.453125 196.929688 273.34375 197.269531 273.320312 197.761719 L 273.1875 200.582031 L 271.945312 200.582031 C 271.945312 198.382812 271.851562 196.359375 271.667969 194.519531 C 275.289062 194.605469 277.949219 194.648438 279.644531 194.648438 L 285.707031 194.648438 C 287.128906 194.648438 289.773438 194.605469 293.644531 194.519531 C 293.457031 196.359375 293.367188 198.382812 293.367188 200.582031 L 292.125 200.582031 L 292.011719 197.839844 C 291.988281 197.269531 291.851562 196.898438 291.601562 196.726562 C 291.371094 196.550781 290.917969 196.464844 290.25 196.464844 L 284.632812 196.464844 "/>
<path style=" stroke:none;fill-rule:nonzero;fill:rgb(13.729858%,12.159729%,12.548828%);fill-opacity:1;" d="M 308.015625 207.90625 L 311.761719 201.953125 C 312.914062 200.125 314.308594 197.6875 315.953125 194.648438 L 318.996094 194.648438 L 318.996094 195.222656 C 312.46875 203.0625 309.203125 208.394531 309.203125 211.226562 L 309.203125 216.476562 C 309.203125 217.515625 309.296875 218.28125 309.480469 218.777344 C 309.679688 219.269531 310.105469 219.542969 310.761719 219.589844 L 312.988281 219.742188 L 312.988281 220.890625 C 310.996094 220.800781 309.132812 220.757812 307.386719 220.757812 C 305.65625 220.757812 303.796875 220.800781 301.804688 220.890625 L 301.804688 219.742188 L 303.863281 219.589844 C 304.667969 219.542969 305.152344 219.289062 305.328125 218.832031 C 305.5 218.363281 305.585938 217.609375 305.585938 216.570312 L 305.585938 211.023438 C 305.585938 210.34375 305.253906 209.445312 304.585938 208.335938 L 300.265625 200.859375 C 299.375 199.328125 298.558594 198.226562 297.816406 197.558594 C 297.074219 196.890625 296.359375 196.519531 295.667969 196.445312 L 294.609375 196.316406 L 294.609375 195.167969 C 297.515625 194.535156 299.035156 194.222656 299.171875 194.222656 C 299.492188 194.222656 300.03125 194.652344 300.785156 195.519531 C 301.550781 196.371094 302.363281 197.585938 303.214844 199.152344 L 308.015625 207.90625 "/>
<path style=" stroke:none;fill-rule:nonzero;fill:rgb(13.729858%,12.159729%,12.548828%);fill-opacity:1;" d="M 334 206.164062 C 334 210.417969 334.984375 213.789062 336.949219 216.273438 C 338.914062 218.746094 341.457031 219.980469 344.570312 219.980469 C 347.601562 219.980469 349.929688 218.929688 351.5625 216.828125 C 353.207031 214.714844 354.027344 211.734375 354.027344 207.886719 C 354.027344 203.910156 353.132812 200.835938 351.339844 198.671875 C 349.546875 196.507812 347 195.425781 343.699219 195.425781 C 340.707031 195.425781 338.339844 196.378906 336.59375 198.28125 C 334.863281 200.1875 334 202.8125 334 206.164062 Z M 329.996094 207.816406 C 329.996094 203.746094 331.273438 200.402344 333.832031 197.78125 C 336.390625 195.148438 339.636719 193.832031 343.570312 193.832031 C 347.859375 193.832031 351.339844 194.917969 354.011719 197.097656 C 356.691406 199.261719 358.035156 202.46875 358.035156 206.722656 C 358.035156 210.824219 356.664062 214.332031 353.917969 217.234375 C 351.183594 220.128906 347.628906 221.574219 343.253906 221.574219 C 339.273438 221.574219 336.066406 220.316406 333.628906 217.792969 C 331.207031 215.269531 329.996094 211.945312 329.996094 207.816406 "/>
<path style=" stroke:none;fill-rule:nonzero;fill:rgb(13.729858%,12.159729%,12.548828%);fill-opacity:1;" d="M 379.398438 194.648438 C 378.992188 196.242188 378.789062 198.121094 378.789062 200.285156 L 377.488281 200.285156 L 377.488281 198.449219 C 377.488281 197.683594 377.414062 197.214844 377.265625 197.039062 C 377.132812 196.855469 376.808594 196.695312 376.300781 196.558594 C 375.632812 196.421875 374.867188 196.316406 374.003906 196.242188 C 373.148438 196.15625 371.960938 196.113281 370.441406 196.113281 C 369.316406 196.113281 368.246094 196.210938 367.234375 196.410156 L 367.234375 206.535156 C 368.421875 206.621094 369.867188 206.664062 371.574219 206.664062 C 373.910156 206.664062 375.203125 206.511719 375.449219 206.203125 C 375.699219 205.878906 375.84375 205.449219 375.894531 204.902344 L 376.0625 203.105469 L 377.304688 203.105469 C 377.230469 205.070312 377.191406 206.535156 377.191406 207.5 C 377.191406 208.167969 377.230469 209.609375 377.304688 211.820312 L 376.0625 211.820312 L 375.929688 210.226562 C 375.882812 209.582031 375.726562 209.09375 375.46875 208.761719 C 375.207031 208.425781 373.957031 208.261719 371.722656 208.261719 C 370.25 208.261719 368.753906 208.304688 367.234375 208.390625 L 367.234375 216.496094 C 367.234375 218.066406 367.40625 218.972656 367.753906 219.21875 C 368.097656 219.46875 368.675781 219.617188 369.476562 219.664062 L 370.960938 219.742188 L 370.960938 220.890625 C 368.996094 220.800781 367.144531 220.757812 365.414062 220.757812 C 363.96875 220.757812 362.128906 220.800781 359.890625 220.890625 L 359.890625 219.742188 L 361.613281 219.628906 C 362.292969 219.578125 362.796875 219.417969 363.117188 219.144531 C 363.449219 218.875 363.617188 217.976562 363.617188 216.457031 L 363.617188 198.839844 C 363.617188 198.207031 363.546875 197.558594 363.414062 196.890625 C 363.289062 196.210938 362.761719 195.839844 361.835938 195.777344 L 359.890625 195.667969 L 359.890625 194.519531 C 362.488281 194.605469 364.472656 194.648438 365.84375 194.648438 C 367.03125 194.648438 368.585938 194.628906 370.515625 194.59375 C 372.457031 194.542969 373.792969 194.519531 374.523438 194.519531 C 375.941406 194.519531 377.570312 194.5625 379.398438 194.648438 "/>
<path style=" stroke:none;fill-rule:nonzero;fill:rgb(13.729858%,12.159729%,12.548828%);fill-opacity:1;" d="M 401.503906 195.667969 L 399.96875 195.761719 C 398.804688 195.808594 398.136719 196.085938 397.964844 196.59375 C 397.804688 197.101562 397.722656 197.886719 397.722656 198.949219 L 397.722656 217.253906 C 397.722656 220.839844 396.855469 223.539062 395.125 225.359375 C 393.40625 227.164062 391.683594 228.066406 389.949219 228.066406 C 389.667969 228.066406 389.425781 228.042969 389.230469 227.992188 L 389.0625 225.027344 L 389.46875 224.800781 C 389.875 225.085938 390.320312 225.289062 390.804688 225.414062 C 391.300781 225.539062 391.734375 225.601562 392.105469 225.601562 C 392.734375 225.601562 393.222656 225.347656 393.570312 224.839844 C 393.925781 224.320312 394.105469 223.132812 394.105469 221.277344 L 394.105469 198.96875 C 394.105469 197.746094 394.015625 196.921875 393.828125 196.503906 C 393.65625 196.082031 393.136719 195.847656 392.269531 195.796875 L 390.320312 195.667969 L 390.320312 194.519531 C 392.3125 194.605469 394.179688 194.648438 395.925781 194.648438 C 397.667969 194.648438 399.527344 194.605469 401.503906 194.519531 L 401.503906 195.667969 "/>
<path style=" stroke:none;fill-rule:nonzero;fill:rgb(13.729858%,12.159729%,12.548828%);fill-opacity:1;" d="M 415.96875 207.90625 L 419.714844 201.953125 C 420.867188 200.125 422.261719 197.6875 423.90625 194.648438 L 426.949219 194.648438 L 426.949219 195.222656 C 420.421875 203.0625 417.160156 208.394531 417.160156 211.226562 L 417.160156 216.476562 C 417.160156 217.515625 417.25 218.28125 417.433594 218.777344 C 417.632812 219.269531 418.058594 219.542969 418.714844 219.589844 L 420.941406 219.742188 L 420.941406 220.890625 C 418.949219 220.800781 417.085938 220.757812 415.339844 220.757812 C 413.609375 220.757812 411.75 220.800781 409.757812 220.890625 L 409.757812 219.742188 L 411.816406 219.589844 C 412.621094 219.542969 413.105469 219.289062 413.28125 218.832031 C 413.453125 218.363281 413.539062 217.609375 413.539062 216.570312 L 413.539062 211.023438 C 413.539062 210.34375 413.207031 209.445312 412.539062 208.335938 L 408.21875 200.859375 C 407.328125 199.328125 406.511719 198.226562 405.769531 197.558594 C 405.027344 196.890625 404.308594 196.519531 403.621094 196.445312 L 402.5625 196.316406 L 402.5625 195.167969 C 405.46875 194.535156 406.988281 194.222656 407.125 194.222656 C 407.445312 194.222656 407.984375 194.652344 408.738281 195.519531 C 409.503906 196.371094 410.316406 197.585938 411.167969 199.152344 L 415.96875 207.90625 "/>
<path style=" stroke:none;fill-rule:nonzero;fill:rgb(13.729858%,12.159729%,12.548828%);fill-opacity:1;" d="M 440.339844 221.167969 C 440.042969 220.140625 437.1875 212.820312 431.773438 199.210938 C 431.203125 197.75 430.757812 196.835938 430.4375 196.464844 C 430.125 196.09375 429.636719 195.863281 428.972656 195.777344 L 427.875 195.667969 L 427.875 194.519531 C 429.867188 194.605469 431.394531 194.648438 432.457031 194.648438 C 433.820312 194.648438 435.652344 194.605469 437.964844 194.519531 L 437.964844 195.667969 L 436.035156 195.796875 C 435.109375 195.847656 434.644531 196.070312 434.644531 196.464844 C 434.644531 196.675781 434.875 197.347656 435.332031 198.488281 L 442.25 216.289062 L 448.332031 200.339844 C 449.085938 198.339844 449.464844 197.1875 449.464844 196.890625 C 449.464844 196.1875 448.859375 195.808594 447.648438 195.761719 L 446.125 195.667969 L 446.125 194.519531 C 448.191406 194.605469 449.605469 194.648438 450.371094 194.648438 C 451.558594 194.648438 452.886719 194.605469 454.359375 194.519531 L 454.359375 195.667969 L 453.285156 195.796875 C 452.59375 195.871094 452 196.527344 451.503906 197.761719 C 449.699219 202.089844 447.8125 206.636719 445.847656 211.394531 C 443.894531 216.15625 442.675781 219.414062 442.195312 221.167969 L 440.339844 221.167969 "/>
<path style=" stroke:none;fill-rule:nonzero;fill:rgb(13.729858%,12.159729%,12.548828%);fill-opacity:1;" d="M 467.402344 189.605469 C 467.402344 188.996094 467.582031 188.523438 467.941406 188.175781 C 468.3125 187.828125 468.78125 187.65625 469.347656 187.65625 C 469.894531 187.65625 470.339844 187.828125 470.683594 188.175781 C 471.03125 188.523438 471.203125 188.964844 471.203125 189.511719 C 471.203125 190.054688 471.027344 190.519531 470.664062 190.902344 C 470.308594 191.273438 469.835938 191.457031 469.257812 191.457031 C 468.726562 191.457031 468.28125 191.292969 467.921875 190.957031 C 467.574219 190.609375 467.402344 190.160156 467.402344 189.605469 Z M 459.742188 189.605469 C 459.742188 189.097656 459.902344 188.644531 460.226562 188.25 C 460.558594 187.855469 461.046875 187.65625 461.691406 187.65625 C 462.210938 187.65625 462.648438 187.824219 463.007812 188.15625 C 463.363281 188.488281 463.542969 188.941406 463.542969 189.511719 C 463.542969 190.054688 463.363281 190.519531 463.007812 190.902344 C 462.648438 191.273438 462.179688 191.457031 461.597656 191.457031 C 461.066406 191.457031 460.621094 191.285156 460.261719 190.9375 C 459.917969 190.578125 459.742188 190.136719 459.742188 189.605469 Z M 459.558594 210.617188 L 469.21875 210.617188 L 464.34375 199.320312 Z M 469.925781 212.0625 L 458.890625 212.0625 L 457.722656 215.066406 C 456.941406 216.984375 456.550781 218.164062 456.550781 218.609375 C 456.550781 219.214844 457.039062 219.554688 458.019531 219.628906 L 459.761719 219.742188 L 459.761719 220.890625 C 457.757812 220.800781 456.28125 220.757812 455.328125 220.757812 C 454.5625 220.757812 453.128906 220.800781 451.027344 220.890625 L 451.027344 219.742188 L 452.417969 219.628906 C 453.269531 219.554688 453.964844 218.894531 454.492188 217.644531 L 464.675781 194.238281 L 465.917969 194.238281 L 475.414062 216.199219 C 475.96875 217.519531 476.425781 218.429688 476.785156 218.921875 C 477.15625 219.40625 477.582031 219.652344 478.066406 219.664062 L 479.273438 219.742188 L 479.273438 220.890625 C 477.429688 220.800781 475.902344 220.757812 474.691406 220.757812 C 473.921875 220.757812 472.085938 220.800781 469.183594 220.890625 L 469.183594 219.742188 L 471.164062 219.589844 C 472.058594 219.515625 472.503906 219.265625 472.503906 218.832031 C 472.503906 218.558594 472.296875 217.921875 471.890625 216.921875 L 469.925781 212.0625 "/>
<path style=" stroke:none;fill-rule:nonzero;fill:rgb(13.729858%,12.159729%,12.548828%);fill-opacity:1;" d="M 481.144531 220.183594 C 481.328125 219.011719 481.421875 217.589844 481.421875 215.921875 L 481.421875 214.453125 L 482.609375 214.453125 L 482.867188 216.714844 C 482.992188 217.71875 483.695312 218.515625 484.980469 219.109375 C 486.269531 219.691406 487.613281 219.980469 489.027344 219.980469 C 490.953125 219.980469 492.605469 219.441406 493.976562 218.367188 C 495.363281 217.28125 496.054688 215.878906 496.054688 214.15625 C 496.054688 212.4375 495.492188 211.210938 494.367188 210.464844 C 493.242188 209.726562 491.5 209.21875 489.136719 208.945312 C 485.984375 208.539062 483.824219 207.808594 482.664062 206.757812 C 481.5 205.695312 480.921875 204.21875 480.921875 202.324219 C 480.921875 199.742188 481.898438 197.683594 483.851562 196.148438 C 485.804688 194.605469 488.148438 193.832031 490.878906 193.832031 C 492.648438 193.832031 494.917969 194.34375 497.683594 195.371094 C 497.351562 197.152344 497.1875 198.914062 497.1875 200.65625 L 495.941406 200.65625 L 495.738281 198.765625 C 495.628906 197.664062 495.015625 196.835938 493.902344 196.28125 C 492.789062 195.710938 491.457031 195.425781 489.898438 195.425781 C 488.300781 195.425781 486.941406 195.929688 485.816406 196.929688 C 484.691406 197.929688 484.128906 199.265625 484.128906 200.933594 C 484.128906 202.46875 484.660156 203.597656 485.726562 204.328125 C 486.789062 205.046875 488.4375 205.523438 490.675781 205.757812 C 493.953125 206.089844 496.203125 206.757812 497.425781 207.761719 C 498.652344 208.75 499.261719 210.101562 499.261719 211.820312 C 499.261719 214.824219 498.15625 217.207031 495.941406 218.960938 C 493.742188 220.703125 490.953125 221.574219 487.578125 221.574219 C 485.277344 221.574219 483.136719 221.113281 481.144531 220.183594 "/>
<path style=" stroke:none;fill-rule:nonzero;fill:rgb(13.729858%,12.159729%,12.548828%);fill-opacity:1;" d="M 527.304688 220.890625 C 526.203125 220.800781 525.386719 220.757812 524.855469 220.757812 C 524.261719 220.757812 523.238281 220.800781 521.777344 220.890625 L 508.703125 208.203125 L 508.183594 208.410156 L 508.183594 216.476562 C 508.183594 218.121094 508.414062 219.058594 508.871094 219.292969 C 509.328125 219.515625 509.808594 219.640625 510.316406 219.664062 L 511.96875 219.742188 L 511.96875 220.890625 C 509.570312 220.800781 507.703125 220.757812 506.367188 220.757812 C 505.179688 220.757812 503.320312 220.800781 500.785156 220.890625 L 500.785156 219.742188 L 502.582031 219.628906 C 503.460938 219.578125 504.011719 219.355469 504.234375 218.960938 C 504.457031 218.550781 504.566406 217.722656 504.566406 216.476562 L 504.566406 198.933594 C 504.566406 197.769531 504.464844 196.964844 504.253906 196.519531 C 504.054688 196.0625 503.46875 195.808594 502.488281 195.761719 L 500.785156 195.667969 L 500.785156 194.519531 C 503.082031 194.605469 504.949219 194.648438 506.382812 194.648438 C 507.746094 194.648438 509.605469 194.605469 511.96875 194.519531 L 511.96875 195.667969 L 509.929688 195.796875 C 509.011719 195.847656 508.492188 196.117188 508.371094 196.613281 C 508.246094 197.109375 508.183594 197.882812 508.183594 198.933594 L 508.183594 207.296875 L 518.847656 196.910156 C 519.527344 196.265625 519.867188 195.820312 519.867188 195.574219 L 519.867188 194.519531 C 521.15625 194.605469 522.253906 194.648438 523.167969 194.648438 C 523.75 194.648438 524.789062 194.605469 526.285156 194.519531 L 526.285156 195.667969 L 524.742188 195.761719 C 523.753906 195.808594 522.789062 196.265625 521.851562 197.132812 L 511.746094 206.273438 L 524.1875 218.125 C 524.523438 218.472656 524.949219 218.832031 525.46875 219.203125 C 526 219.5625 526.609375 219.742188 527.304688 219.742188 L 527.304688 220.890625 "/>
<path style=" stroke:none;fill-rule:nonzero;fill:rgb(13.729858%,12.159729%,12.548828%);fill-opacity:1;" d="M 541.230469 207.90625 L 544.976562 201.953125 C 546.128906 200.125 547.523438 197.6875 549.167969 194.648438 L 552.210938 194.648438 L 552.210938 195.222656 C 545.679688 203.0625 542.417969 208.394531 542.417969 211.226562 L 542.417969 216.476562 C 542.417969 217.515625 542.511719 218.28125 542.695312 218.777344 C 542.894531 219.269531 543.320312 219.542969 543.976562 219.589844 L 546.203125 219.742188 L 546.203125 220.890625 C 544.210938 220.800781 542.34375 220.757812 540.601562 220.757812 C 538.871094 220.757812 537.011719 220.800781 535.015625 220.890625 L 535.015625 219.742188 L 537.078125 219.589844 C 537.878906 219.542969 538.367188 219.289062 538.542969 218.832031 C 538.714844 218.363281 538.800781 217.609375 538.800781 216.570312 L 538.800781 211.023438 C 538.800781 210.34375 538.46875 209.445312 537.800781 208.335938 L 533.480469 200.859375 C 532.589844 199.328125 531.773438 198.226562 531.03125 197.558594 C 530.289062 196.890625 529.570312 196.519531 528.882812 196.445312 L 527.824219 196.316406 L 527.824219 195.167969 C 530.730469 194.535156 532.25 194.222656 532.386719 194.222656 C 532.707031 194.222656 533.242188 194.652344 534 195.519531 C 534.765625 196.371094 535.574219 197.585938 536.429688 199.152344 L 541.230469 207.90625 "/>
<path style=" stroke:none;fill-rule:nonzero;fill:rgb(13.729858%,12.159729%,12.548828%);fill-opacity:1;" d="M 561.09375 218.867188 C 561.898438 219.066406 563.203125 219.164062 565.007812 219.164062 C 568.257812 219.164062 570.625 219 572.109375 218.664062 C 572.527344 218.566406 572.875 217.960938 573.148438 216.847656 L 573.796875 214.230469 L 575.039062 214.230469 C 574.878906 215.789062 574.613281 217.964844 574.242188 220.757812 C 571.1875 220.847656 568.703125 220.890625 566.785156 220.890625 C 566.058594 220.890625 565.101562 220.871094 563.910156 220.832031 C 562.738281 220.785156 561.710938 220.757812 560.835938 220.757812 C 559.140625 220.757812 557.3125 220.800781 555.34375 220.890625 L 555.34375 220.019531 C 556.171875 219.621094 556.734375 219.265625 557.03125 218.941406 C 557.328125 218.621094 557.476562 218.089844 557.476562 217.347656 L 557.476562 198.800781 C 557.476562 197.726562 557.386719 196.960938 557.199219 196.503906 C 557.027344 196.046875 556.457031 195.789062 555.492188 195.742188 L 553.695312 195.667969 L 553.695312 194.519531 C 555.6875 194.605469 557.550781 194.648438 559.296875 194.648438 C 561.039062 194.648438 562.898438 194.605469 564.875 194.519531 L 564.875 195.667969 L 562.910156 195.761719 C 561.996094 195.785156 561.464844 196.058594 561.316406 196.574219 C 561.167969 197.097656 561.09375 197.882812 561.09375 198.933594 L 561.09375 218.867188 "/>
<g clip-path="url(#clip3)" clip-rule="nonzero">
<path style=" stroke:none;fill-rule:nonzero;fill:rgb(13.729858%,12.159729%,12.548828%);fill-opacity:1;" d="M 592.992188 189.605469 C 592.992188 188.996094 593.171875 188.523438 593.527344 188.175781 C 593.898438 187.828125 594.371094 187.65625 594.941406 187.65625 C 595.480469 187.65625 595.925781 187.828125 596.273438 188.175781 C 596.621094 188.523438 596.792969 188.964844 596.792969 189.511719 C 596.792969 190.054688 596.613281 190.519531 596.253906 190.902344 C 595.898438 191.273438 595.425781 191.457031 594.847656 191.457031 C 594.316406 191.457031 593.867188 191.292969 593.511719 190.957031 C 593.164062 190.609375 592.992188 190.160156 592.992188 189.605469 Z M 585.332031 189.605469 C 585.332031 189.097656 585.492188 188.644531 585.8125 188.25 C 586.148438 187.855469 586.636719 187.65625 587.277344 187.65625 C 587.796875 187.65625 588.238281 187.824219 588.597656 188.15625 C 588.957031 188.488281 589.132812 188.941406 589.132812 189.511719 C 589.132812 190.054688 588.957031 190.519531 588.597656 190.902344 C 588.238281 191.273438 587.769531 191.457031 587.1875 191.457031 C 586.65625 191.457031 586.210938 191.285156 585.851562 190.9375 C 585.503906 190.578125 585.332031 190.136719 585.332031 189.605469 Z M 585.144531 210.617188 L 594.808594 210.617188 L 589.929688 199.320312 Z M 595.511719 212.0625 L 584.480469 212.0625 L 583.308594 215.066406 C 582.53125 216.984375 582.144531 218.164062 582.144531 218.609375 C 582.144531 219.214844 582.632812 219.554688 583.605469 219.628906 L 585.351562 219.742188 L 585.351562 220.890625 C 583.347656 220.800781 581.871094 220.757812 580.917969 220.757812 C 580.152344 220.757812 578.71875 220.800781 576.613281 220.890625 L 576.613281 219.742188 L 578.007812 219.628906 C 578.859375 219.554688 579.550781 218.894531 580.085938 217.644531 L 590.265625 194.238281 L 591.507812 194.238281 L 601.003906 216.199219 C 601.5625 217.519531 602.015625 218.429688 602.375 218.921875 C 602.746094 219.40625 603.171875 219.652344 603.65625 219.664062 L 604.859375 219.742188 L 604.859375 220.890625 C 603.019531 220.800781 601.492188 220.757812 600.28125 220.757812 C 599.511719 220.757812 597.675781 220.800781 594.773438 220.890625 L 594.773438 219.742188 L 596.757812 219.589844 C 597.644531 219.515625 598.089844 219.265625 598.089844 218.832031 C 598.089844 218.558594 597.886719 217.921875 597.480469 216.921875 L 595.511719 212.0625 "/>
</g>
</g>
</svg>
