<?xml version="1.0" encoding="utf-8"?>
<!-- Generator: Adobe Illustrator 24.1.0, SVG Export Plug-In . SVG Version: 6.00 Build 0)  -->
<svg version="1.1" id="Layer_1" xmlns="http://www.w3.org/2000/svg" xmlns:xlink="http://www.w3.org/1999/xlink" x="0px" y="0px"
	 viewBox="0 0 500 500" style="enable-background:new 0 0 500 500;" xml:space="preserve">
<style type="text/css">
	.st0{fill:#FF7D70;}
	.st1{fill:#FFFFFF;}
	.st2{fill:#333361;}
</style>
<g>
	<path class="st0" d="M250,497.5c136.69,0,247.5-110.81,247.5-247.5C497.5,113.31,386.69,2.5,250,2.5S2.5,113.31,2.5,250
		C2.5,386.69,113.31,497.5,250,497.5"/>
	<path class="st1" d="M304.75,309.36v-11.44c0-7.34,3.56-14.22,9.51-18.5c27.81-20,45.93-52.62,45.93-89.48
		c0-62.83-52.58-113.37-116.13-110.03c-56.8,2.98-102.38,49.59-104.19,106.44c-1.19,37.38,16.25,70.75,43.74,91.53
		c5.66,4.27,8.95,10.99,8.95,18.07v13.41l-0.54,31.48h115.37L304.75,309.36z"/>
</g>
<rect x="200.69" y="369.66" class="st2" width="98.63" height="14.56"/>
<rect x="200.69" y="403.63" class="st2" width="98.63" height="14.56"/>
</svg>
