<?xml version="1.0" encoding="utf-8"?>
<!-- Generator: Adobe Illustrator 24.1.0, SVG Export Plug-In . SVG Version: 6.00 Build 0)  -->
<svg version="1.1" id="Layer_1" xmlns="http://www.w3.org/2000/svg" xmlns:xlink="http://www.w3.org/1999/xlink" x="0px" y="0px"
	 viewBox="0 0 500 500" style="enable-background:new 0 0 500 500;" xml:space="preserve">
<style type="text/css">
	.st0{fill:#FF7E70;}
	.st1{fill:#290049;}
	.st2{fill:#FFFFFF;}
</style>
<g>
	<g>
		<path class="st0" d="M250,497.5c136.69,0,247.5-110.81,247.5-247.5C497.5,113.31,386.69,2.5,250,2.5S2.5,113.31,2.5,250
			C2.5,386.69,113.31,497.5,250,497.5"/>
	</g>
	<path class="st1" d="M394.09,313.59c-17.59,6.45-38.66,11.59-61.77,15.26V138.42H167.86v191.32c-23.03-3.38-44.17-8.24-62.34-14.46
		l-6.28,18.36c39.69,13.58,92.33,21.06,148.21,21.06c58.62,0,113.07-8.13,153.33-22.89L394.09,313.59z"/>
	<path class="st2" d="M247.55,279.29c-27.69,0-54.92-2.05-79.69-5.85v56.66c25.13,3.42,52.04,5.23,79.69,5.23
		c29.62,0,58.27-2.04,84.76-5.92v-56.75C306.29,276.97,277.29,279.29,247.55,279.29z"/>
</g>
</svg>
