<?xml version="1.0" encoding="utf-8"?>
<!-- Generator: Adobe Illustrator 24.1.0, SVG Export Plug-In . SVG Version: 6.00 Build 0)  -->
<svg version="1.1" id="Layer_1" xmlns="http://www.w3.org/2000/svg" xmlns:xlink="http://www.w3.org/1999/xlink" x="0px" y="0px"
	 viewBox="0 0 500 500" style="enable-background:new 0 0 500 500;" xml:space="preserve">
<style type="text/css">
	.st0{clip-path:url(#SVGID_2_);fill:#343260;}
	.st1{clip-path:url(#SVGID_2_);fill:#FFFFFF;}
</style>
<g>
	<defs>
		<rect id="SVGID_1_" width="500" height="500"/>
	</defs>
	<clipPath id="SVGID_2_">
		<use xlink:href="#SVGID_1_"  style="overflow:visible;"/>
	</clipPath>
	<path class="st0" d="M250,497.5c136.69,0,247.5-110.81,247.5-247.5S386.69,2.5,250,2.5S2.5,113.31,2.5,250S113.31,497.5,250,497.5"
		/>
	<path class="st1" d="M224.71,206.86c0,16.37-13.27,29.65-29.65,29.65c-16.37,0-29.65-13.27-29.65-29.65
		c0-16.37,13.27-29.65,29.65-29.65C211.43,177.21,224.71,190.48,224.71,206.86 M270.81,190.03c-1.98-8.96-5.51-17.33-10.29-24.83
		l17.18-17.18l-23.8-23.8l-17.18,17.18c-7.5-4.78-15.87-8.31-24.83-10.29v-24.29h-33.66v24.29c-8.96,1.98-17.33,5.51-24.83,10.29
		l-17.18-17.18l-23.8,23.8l17.18,17.18c-4.78,7.5-8.31,15.87-10.29,24.83H95.03v33.66h24.29c1.98,8.96,5.51,17.33,10.29,24.83
		l-17.18,17.18l23.8,23.8l17.18-17.18c7.5,4.78,15.87,8.31,24.83,10.29v24.29h33.66V282.6c8.96-1.98,17.33-5.51,24.83-10.29
		l17.18,17.18l23.8-23.8l-17.18-17.18c4.78-7.5,8.31-15.87,10.29-24.83h24.29v-33.66H270.81z"/>
	<path class="st1" d="M252.66,369.46c0,8.84-7.16,16-16,16c-8.84,0-16-7.16-16-16c0-8.84,7.16-16,16-16
		C245.5,353.46,252.66,360.62,252.66,369.46 M277.54,360.38c-1.07-4.83-2.97-9.35-5.55-13.4l9.27-9.27l-12.84-12.84l-9.27,9.27
		c-4.05-2.58-8.57-4.48-13.4-5.55v-13.11h-18.16v13.11c-4.83,1.07-9.35,2.97-13.4,5.55l-9.27-9.27l-12.84,12.84l9.27,9.27
		c-2.58,4.05-4.49,8.56-5.55,13.4h-13.11v18.16h13.11c1.07,4.83,2.97,9.35,5.55,13.4l-9.27,9.27l12.84,12.84l9.27-9.27
		c4.05,2.58,8.56,4.48,13.4,5.55v13.11h18.16v-13.11c4.83-1.07,9.35-2.97,13.4-5.55l9.27,9.27l12.84-12.84l-9.27-9.27
		c2.58-4.05,4.49-8.57,5.55-13.4h13.11v-18.16H277.54z"/>
	<path class="st1" d="M378.44,300.07c0,12.03-9.75,21.78-21.78,21.78c-12.03,0-21.78-9.75-21.78-21.78
		c0-12.03,9.75-21.78,21.78-21.78C368.69,278.29,378.44,288.04,378.44,300.07 M412.31,287.71c-1.46-6.58-4.05-12.73-7.56-18.24
		l12.62-12.62l-17.48-17.48l-12.62,12.62c-5.51-3.51-11.66-6.11-18.24-7.56v-17.84H344.3v17.84c-6.58,1.46-12.73,4.05-18.24,7.56
		l-12.62-12.62l-17.48,17.48l12.62,12.62c-3.51,5.51-6.11,11.66-7.56,18.24h-17.84v24.73h17.84c1.46,6.58,4.05,12.73,7.56,18.24
		l-12.62,12.62l17.48,17.48l12.62-12.62c5.51,3.51,11.66,6.1,18.24,7.56v17.85h24.73v-17.85c6.58-1.46,12.73-4.05,18.24-7.56
		l12.62,12.62l17.48-17.48l-12.62-12.62c3.51-5.51,6.1-11.66,7.56-18.24h17.84v-24.73H412.31z"/>
</g>
</svg>
