<svg xmlns="http://www.w3.org/2000/svg" viewBox="0 0 77.2 22.7"><path d="M0 0v22.7h23.5V0H0zm12.9 17.9c-.7 0-1.2.6-1.2 1.2 0-.6-.5-1.2-1.2-1.2H4.2l.9-3h5.4c.7 0 1.2.6 1.2 1.2 0-.6.5-1.2 1.2-1.2h5.4l.9 3h-6.3zm5.3-5.5c0 .4.1.6.1.6h-5.4c-.7 0-1.2.6-1.2 1.2 0-.6-.5-1.2-1.2-1.2H5.1s.1-.3.1-.6c0-.5-1.2-7.3-1.2-7.3.6.8 2.1 1 1.8 2.1.2-.2 1-.5 1.5.1.6.8-.1 1.5-.3 1.7-.3.3-.8.5-.8 1.1 0 .5.4.8.8.8h2.7c.4 0 .9-.3.9-.8s-.4-.8-.7-1.1c-.2-.3-.6-.6-.6-1.1 0-.9 1-1.2 1.3-1 0 0-.3-.2-.2-.7.1-.6 1.4-2 1.4-2.5 0 .5 1.3 1.9 1.4 2.5.1.5-.2.7-.2.7.3-.1 1.3.1 1.3 1 0 .6-.4.9-.7 1.2-.3.3-.7.5-.7 1.1 0 .5.5.8.9.8h2.7c.4 0 .8-.3.8-.8s-.5-.8-.8-1.1c-.2-.2-.9-.9-.4-1.7.5-.6 1.2-.4 1.5-.1-.2-1.2 1.3-1.3 1.8-2.1 0-.1-1.2 6.7-1.2 7.2z" fill="#ec1c24"/><path d="M29.8 10.2h-1.3V4.8s.7-.1 1.5-.1c1.2 0 1.9.4 1.9 1.2 0 .7-.4 1-1 1.3.8.1 1.4.5 1.4 1.3 0 1.1-1 1.7-2.5 1.7m.1-4.7h-.4V7c.7 0 1.3-.2 1.3-.8 0-.5-.4-.7-.9-.7m0 2.2h-.4v1.6h.6c.6 0 1.1-.3 1.1-.8s-.4-.8-1.3-.8m3.5-2.9h1.1v5.4h-1.1zm3.9 5.4H36V4.8s.7-.1 1.5-.1c1.2 0 1.9.4 1.9 1.2 0 .7-.4 1-1 1.3.8.1 1.4.5 1.4 1.3 0 1.1-1 1.7-2.5 1.7m.1-4.7H37V7c.7 0 1.3-.2 1.3-.8 0-.5-.3-.7-.9-.7m.1 2.2h-.4v1.6h.6c.6 0 1.1-.3 1.1-.8-.1-.5-.5-.8-1.3-.8m3.5 2.5V4.8h1v4.5h2v.9zm4-5.4h1.1v5.4H45zm4.9 5.5c-1.9 0-2.6-1.4-2.6-2.8s.7-2.8 2.6-2.8c1.9 0 2.6 1.4 2.6 2.8 0 1.3-.7 2.8-2.6 2.8m0-4.7c-1 0-1.5.7-1.5 1.9s.5 1.9 1.5 1.9 1.5-.8 1.5-1.9c0-1.2-.5-1.9-1.5-1.9m5.6.1v4.5h-1.1V5.7h-1.5v-.9H57v.9zm2.5 4.5V4.8h2.8v.9H59V7h1.7v.8H59v1.5h2v.9zm5.3-2.4v2.4h-1.1V4.8h1.1V7h.3l1.7-2.2h1.2l-2 2.5 2.2 2.9h-1.3l-1.8-2.4zm7.4 2.4l-.5-1.6h-1.6l-.5 1.6H67l2-5.4h1l1.8 5.4h-1.1zm-1.2-4.4l-.6 2.1h1.2l-.6-2.1zM31.8 18.7L29.4 15l.1 3.7h-1v-5.4h.9l2.3 3.5v-3.5h1v5.4zm5.5 0l-.5-1.6h-1.6l-.5 1.6h-1.1l1.9-5.4h1.1l1.8 5.4h-1.1zM36 14.3l-.6 2.1h1.2l-.6-2.1zm6.1 4.4l-1.3-2.2h-.5v2.2h-1v-5.3s.7-.1 1.5-.1c1.2 0 1.9.5 1.9 1.4 0 .7-.4 1.2-1 1.5l1.6 2.6h-1.2zM40.7 14h-.4v1.8h.1c.6 0 1.2-.3 1.2-1 0-.6-.4-.8-.9-.8m5.5 4.8c-1.9 0-2.6-1.4-2.6-2.8s.7-2.8 2.6-2.8c1.9 0 2.6 1.4 2.6 2.8 0 1.3-.6 2.8-2.6 2.8m0-4.7c-1 0-1.5.7-1.5 1.9s.5 1.9 1.5 1.9 1.5-.8 1.5-1.9c0-1.2-.4-1.9-1.5-1.9m5.1 4.6H50v-5.4s.8-.1 1.7-.1c1.7 0 2.8.8 2.8 2.4 0 2-1.3 3.1-3.2 3.1m.3-4.6h-.5v3.6h.4c1.2 0 1.9-.6 1.9-2 0-1.1-.8-1.6-1.8-1.6m6.4 4.7c-1.9 0-2.6-1.4-2.6-2.8s.7-2.8 2.6-2.8c1.9 0 2.6 1.4 2.6 2.8 0 1.3-.7 2.8-2.6 2.8m0-4.7c-1 0-1.5.7-1.5 1.9s.5 1.9 1.5 1.9 1.5-.8 1.5-1.9c0-1.2-.5-1.9-1.5-1.9m8.8 4.6h-1.1l-1.1-3.9-1.1 3.9h-1.1l-1.2-5.4h1.1l.7 3.8 1.1-3.8h1.1l1 3.8h.1l.7-3.8h1zm5.1 0l-.5-1.6h-1.6l-.5 1.6h-1.1l1.9-5.4h1.1l1.8 5.4h-1.1zm-1.3-4.4l-.6 2.1h1.2l-.6-2.1z"/></svg>