<svg id="Layer_1" data-name="Layer 1" xmlns="http://www.w3.org/2000/svg" viewBox="0 0 170.08 121.89"><path d="M43.35,114.3c.39,0,1.32,0,2.18,0a.73.73,0,0,1,.37.22c.25.3.68.83,1.34,1.67s4.4,4.89,5.49,6.08c.1.1.16-.07.16-.12.09-.53,0-2.37,0-4.6,0-.58,0-1.2-.09-1.71,0-.36-.15-.76-1.06-1-.34-.1-.47-.22-.47-.37s.22-.17.45-.17l1.39,0c.64,0,1.21-.07,1.65-.07s.39.07.39.19-.1.27-.4.34c-.75.2-1,.39-1.07,1.25,0,.59-.18,4.14-.18,6.73,0,.71.11,2,.11,2.33s-.11.36-.25.36-.62-.37-.79-.58c-.29-.37-.61-.79-1.07-1.35-1.58-1.89-4.46-5.12-6-6.93-.07-.09-.2,0-.2,0,0,.46-.07.93-.07,2.25,0,1.69-.07,4,0,4.6s.24,1,1.07,1.24c.33.08.42.2.42.3s-.22.24-.54.24c-.49,0-1.13-.09-1.74-.09-.37,0-.91,0-1.2,0s-.44,0-.44-.19.17-.25.34-.3c.79-.26,1.13-.33,1.2-1.59.08-1.48.32-5.37.32-6.74,0-.62-.09-.79-.14-.84a1.89,1.89,0,0,0-1.38-.78c-.19-.05-.37-.15-.37-.27S43,114.3,43.35,114.3Z" transform="translate(-42.52 -42.52)"/><path d="M62.05,114.47c.16.45.44,1.23.75,2.06.89,2.5,2.14,5.8,2.43,6.53.56,1.37.85,1.51,1.57,1.71.27.07.42.15.42.27s-.13.24-.55.24-1.46-.09-2.15-.09-.86,0-1.3,0-.52-.12-.52-.22.1-.22.42-.27c.78-.16.73-.5.67-.83a23.38,23.38,0,0,0-.92-2.81c0-.07-.11-.19-.53-.19-1.11,0-2.45,0-2.79.07-.06,0-.15.1-.18.15a12.09,12.09,0,0,0-.86,2.84c0,.22.1.51.84.73.29.09.46.19.46.32s-.26.22-.49.22-.71,0-1.34,0-1.48.09-1.74.09-.4-.09-.4-.19.1-.25.39-.34c.84-.27,1.06-.35,1.53-1.44.41-.86,2.3-5.92,3-7.61.08-.22.12-.32.15-.42A1.61,1.61,0,0,1,61,115c.12-.19.36-.54.47-.73s.21-.22.29-.22S61.94,114.11,62.05,114.47Zm.44,5.53c-.27-.83-1.11-3.28-1.28-3.59-.05-.1-.1-.1-.15,0-.31.81-1.17,3.13-1.3,3.64,0,.06,0,.11.1.11.66,0,2,0,2.6,0C62.48,120.15,62.51,120.07,62.49,120Z" transform="translate(-42.52 -42.52)"/><path d="M75.56,114.32a2.32,2.32,0,0,0,1.18-.29c.12-.07.18-.12.25-.12s.17.15.09.39a11,11,0,0,0-.38,2c0,.15-.15.34-.28.34s-.21-.12-.26-.54c-.11-.9-.33-1-1.33-1-.3,0-2.06,0-2.32,0-.06,0-.13.17-.13.22,0,.79,0,2.55,0,4,0,2,0,3.6.09,4.28s.15,1,1.23,1.18c.22,0,.44.2.44.31s-.29.22-.47.22-1.35-.09-2-.09-1.74.12-2,.12-.5-.1-.5-.2.17-.26.33-.31c1.15-.27,1.2-.54,1.25-1.79,0-1,.12-4.43.12-5.73v-2a.23.23,0,0,0-.15-.22c-.32-.05-1.76-.08-2-.08a1.52,1.52,0,0,0-1.2.39,4.43,4.43,0,0,0-.54.88c-.17.35-.27.37-.34.37s-.2-.2-.2-.37A18.25,18.25,0,0,0,66.7,114c0-.1.14-.29.26-.29s.12.12.27.27a1.17,1.17,0,0,0,.6.31c.43,0,2,.1,3.91.1Z" transform="translate(-42.52 -42.52)"/><path d="M80.14,116c0-.79,0-1.05-1-1.22-.38-.08-.49-.2-.49-.3s.19-.22.46-.22c.44,0,1.3,0,1.86,0,.83,0,1.25,0,1.84,0,.29,0,.46.07.46.22s-.19.24-.46.29c-1,.18-1,.61-1,1.06a47,47,0,0,0-.11,4.77c0,1.15,0,2.13.06,2.67.06.93.13,1.24,1.19,1.46.31.07.46.17.46.3s-.27.22-.47.22c-.83,0-2-.1-2.52-.1s-.73,0-1.35,0c-.34,0-.46-.12-.46-.26s.16-.22.51-.29c.83-.18.9-.45,1-1.23.05-.61.09-2.37.09-3.81C80.19,118.65,80.17,116.62,80.14,116Z" transform="translate(-42.52 -42.52)"/><path d="M96.93,119.63a5.78,5.78,0,0,1-2.35,4.83,6.17,6.17,0,0,1-3.39,1,5.91,5.91,0,0,1-4.4-1.92,5.6,5.6,0,0,1-1.41-3.83,5.51,5.51,0,0,1,2.19-4.5,6.08,6.08,0,0,1,3.5-1.19A5.63,5.63,0,0,1,96.93,119.63Zm-8.48-4.08a5.3,5.3,0,0,0-1.28,4c0,2.52,1.79,5.39,4.42,5.39a2.76,2.76,0,0,0,2.13-.77,5.52,5.52,0,0,0,1.42-4,6.17,6.17,0,0,0-2-4.6,4.24,4.24,0,0,0-2.47-.91A3.51,3.51,0,0,0,88.45,115.55Z" transform="translate(-42.52 -42.52)"/><path d="M99.23,114.3c.39,0,1.32,0,2.18,0a.73.73,0,0,1,.37.22c.26.3.68.83,1.34,1.67s4.41,4.89,5.49,6.08c.1.1.17-.07.17-.12.08-.53,0-2.37,0-4.6,0-.58,0-1.2-.08-1.71,0-.36-.16-.76-1.07-1-.34-.1-.47-.22-.47-.37s.22-.17.45-.17l1.39,0c.64,0,1.22-.07,1.66-.07.28,0,.38.07.38.19s-.1.27-.4.34c-.74.2-1,.39-1.07,1.25,0,.59-.18,4.14-.18,6.73,0,.71.12,2,.12,2.33s-.12.36-.26.36-.62-.37-.79-.58c-.29-.37-.61-.79-1.06-1.35-1.59-1.89-4.46-5.12-6-6.93-.07-.09-.21,0-.21,0,0,.46-.07.93-.07,2.25,0,1.69-.06,4,0,4.6s.24,1,1.07,1.24c.34.08.42.2.42.3s-.22.24-.54.24c-.49,0-1.13-.09-1.74-.09-.37,0-.91,0-1.2,0s-.44,0-.44-.19.17-.25.34-.3c.79-.26,1.13-.33,1.2-1.59.08-1.48.32-5.37.32-6.74,0-.62-.08-.79-.13-.84a1.94,1.94,0,0,0-1.39-.78c-.19-.05-.37-.15-.37-.27S98.88,114.3,99.23,114.3Z" transform="translate(-42.52 -42.52)"/><path d="M117.94,114.47c.15.45.44,1.23.74,2.06.89,2.5,2.14,5.8,2.43,6.53.56,1.37.85,1.51,1.57,1.71.27.07.43.15.43.27s-.14.24-.56.24-1.45-.09-2.15-.09-.86,0-1.3,0-.52-.12-.52-.22.1-.22.42-.27c.78-.16.73-.5.68-.83a23.74,23.74,0,0,0-.93-2.81c0-.07-.1-.19-.53-.19-1.11,0-2.45,0-2.78.07-.07,0-.16.1-.19.15a12.09,12.09,0,0,0-.86,2.84c0,.22.1.51.84.73.29.09.46.19.46.32s-.25.22-.49.22-.71,0-1.33,0-1.49.09-1.75.09-.4-.09-.4-.19.1-.25.39-.34c.84-.27,1.06-.35,1.54-1.44.4-.86,2.29-5.92,3-7.61a3.9,3.9,0,0,0,.15-.42s.06-.15.12-.27l.48-.73c.11-.15.2-.22.28-.22S117.82,114.11,117.94,114.47Zm.44,5.53c-.27-.83-1.12-3.28-1.29-3.59,0-.1-.1-.1-.15,0-.3.81-1.17,3.13-1.3,3.64,0,.06,0,.11.1.11.66,0,2,0,2.6,0C118.36,120.15,118.39,120.07,118.38,120Z" transform="translate(-42.52 -42.52)"/><path d="M125.07,114.32c.46,0,.86,0,1.35,0,.66,0,1.81,0,2.21,0s.44.07.44.18-.13.24-.37.29c-1,.22-1.08.43-1.11.66-.11.8-.12,2.51-.12,5,0,1.28,0,2.86.12,3.42a1,1,0,0,0,.59.64,9.32,9.32,0,0,0,1.55.08,10.28,10.28,0,0,0,1.22,0,.91.91,0,0,0,.62-.3,5.91,5.91,0,0,0,1-1.19c.18-.27.34-.35.42-.35s.14.18.07.46a16.81,16.81,0,0,0-.51,1.86c0,.16-.35.28-.42.28s-1.72-.1-5.17-.1c-1.08,0-1.94.09-2.25.09s-.49,0-.49-.19.14-.27.41-.32c.93-.17,1.15-.49,1.23-1.17,0-.42.09-2.92.09-5.36,0-.88,0-1.95,0-2.5s-.1-.73-.9-.9c-.33-.07-.47-.19-.47-.3S124.71,114.32,125.07,114.32Z" transform="translate(-42.52 -42.52)"/><path d="M139,114.32c.46,0,.87,0,1.35,0,.66,0,1.81,0,2.22,0s.44.07.44.18-.14.24-.37.29c-1,.22-1.09.43-1.12.66-.1.8-.12,2.51-.12,5,0,1.28.05,2.86.12,3.42a1.08,1.08,0,0,0,.59.64,9.44,9.44,0,0,0,1.56.08,10.2,10.2,0,0,0,1.21,0,.92.92,0,0,0,.63-.3,6,6,0,0,0,1-1.19c.19-.27.34-.35.43-.35s.13.18.06.46a19,19,0,0,0-.5,1.86c0,.16-.36.28-.42.28-.21,0-1.73-.1-5.17-.1-1.09,0-1.95.09-2.25.09s-.49,0-.49-.19.13-.27.4-.32c.93-.17,1.15-.49,1.24-1.17,0-.42.08-2.92.08-5.36,0-.88,0-1.95,0-2.5s-.11-.73-.9-.9c-.34-.07-.47-.19-.47-.3S138.69,114.32,139,114.32Z" transform="translate(-42.52 -42.52)"/><path d="M150.4,116c-.05-.79-.05-1.05-1-1.22-.39-.08-.49-.2-.49-.3s.18-.22.45-.22c.44,0,1.3,0,1.86,0,.83,0,1.25,0,1.84,0,.29,0,.46.07.46.22s-.19.24-.46.29c-.94.18-1,.61-1,1.06s-.1,1.52-.1,4.77c0,1.15,0,2.13,0,2.67.07.93.13,1.24,1.2,1.46q.45.11.45.3c0,.14-.27.22-.47.22-.83,0-2-.1-2.52-.1s-.72,0-1.35,0c-.34,0-.45-.12-.45-.26s.15-.22.5-.29c.83-.18.9-.45,1-1.23,0-.61.08-2.37.08-3.81C150.45,118.65,150.43,116.62,150.4,116Z" transform="translate(-42.52 -42.52)"/><path d="M162.28,119.07c-.05,0,0,.12,0,.13a3,3,0,0,1,2.08,2.8,2.86,2.86,0,0,1-1.39,2.5,5.92,5.92,0,0,1-3,.78c-.47,0-2.13-.07-2.91-.07l-1.11,0c-.27,0-.51-.09-.51-.24s.26-.22.44-.25c1.15-.24,1.18-.46,1.25-1,0-.35.12-2.18.12-5.53a18,18,0,0,0-.1-2.65c-.09-.38-.15-.54-1-.66-.24,0-.45-.16-.45-.29s.21-.22.45-.22h1.13c.56,0,2.13-.12,2.82-.12a4.87,4.87,0,0,1,2.4.51,2.47,2.47,0,0,1-.18,4.33Zm-1,.9a3.85,3.85,0,0,0-1.73-.34,1.84,1.84,0,0,0-.7.13s-.11.12-.12.56,0,2.74.06,3.3a1.34,1.34,0,0,0,.26.57,2,2,0,0,0,1.13.58,2.48,2.48,0,0,0,2.47-2.61A2.42,2.42,0,0,0,161.3,120Zm-1.59-5.2a3.5,3.5,0,0,0-.71.14.67.67,0,0,0-.19.27c0,.27-.08,1-.08,3.72a.21.21,0,0,0,.19.22,5.75,5.75,0,0,0,2.29-.42,2.18,2.18,0,0,0-1.5-3.93Z" transform="translate(-42.52 -42.52)"/><path d="M173.16,119.39c-.08.07-.42.22-.56.3a.26.26,0,0,0-.07.26,26.35,26.35,0,0,0,2.61,3.87,2.67,2.67,0,0,0,1.62,1c.15,0,.28.17.28.24s-.15.17-.25.2a2.9,2.9,0,0,1-1,.14,3.06,3.06,0,0,1-2.3-1.1c-.57-.78-1.43-2.1-2.11-3.2a4.35,4.35,0,0,0-.64-.81,2.67,2.67,0,0,0-1.13-.22.23.23,0,0,0-.19.19c0,.3,0,2.47.05,3.4,0,.72.21.94,1,1.15.28.06.4.2.4.27s-.32.23-.44.23c-.67,0-1.09-.1-2.18-.1-.35,0-1.23.07-1.41.07s-.46-.09-.46-.25.15-.17.37-.26c.76-.23,1-.35,1.08-1s.1-2.38.1-3.5c0-2.44,0-4-.1-4.58s-.2-.66-1-.85c-.25,0-.4-.15-.4-.29s.12-.2.45-.2h1c.62,0,1.85-.08,2.77-.08a4.31,4.31,0,0,1,2.8.72,2.85,2.85,0,0,1,.95,2.08A2.8,2.8,0,0,1,173.16,119.39Zm-1-4a2.56,2.56,0,0,0-1.62-.64,2.85,2.85,0,0,0-.78.12c-.08,0-.18.3-.2.35,0,.61-.1,3.79,0,4.13a.35.35,0,0,0,.25.24,4.83,4.83,0,0,0,2.06-.43,2.49,2.49,0,0,0,1.09-2.06A2.74,2.74,0,0,0,172.11,115.43Z" transform="translate(-42.52 -42.52)"/><path d="M183.69,114.47c.15.45.44,1.23.74,2.06.9,2.5,2.15,5.8,2.43,6.53.56,1.37.85,1.51,1.57,1.71.27.07.43.15.43.27s-.14.24-.56.24-1.45-.09-2.15-.09-.86,0-1.3,0-.52-.12-.52-.22.1-.22.42-.27c.78-.16.73-.5.68-.83a23.74,23.74,0,0,0-.93-2.81c0-.07-.1-.19-.53-.19-1.11,0-2.45,0-2.78.07-.07,0-.16.1-.19.15a12.09,12.09,0,0,0-.86,2.84c0,.22.1.51.84.73.29.09.46.19.46.32s-.25.22-.49.22-.71,0-1.33,0-1.49.09-1.74.09-.41-.09-.41-.19.1-.25.39-.34c.84-.27,1.06-.35,1.54-1.44.4-.86,2.29-5.92,3-7.61.09-.22.12-.32.16-.42a1.36,1.36,0,0,1,.11-.27l.48-.73c.11-.15.2-.22.28-.22S183.57,114.11,183.69,114.47Zm.44,5.53c-.27-.83-1.12-3.28-1.29-3.59-.05-.1-.1-.1-.15,0-.3.81-1.17,3.13-1.3,3.64,0,.06,0,.11.1.11.66,0,2,0,2.6,0C184.11,120.15,184.14,120.07,184.13,120Z" transform="translate(-42.52 -42.52)"/><path d="M196.9,119.39c-.08.07-.42.22-.56.3a.26.26,0,0,0-.06.26,25.34,25.34,0,0,0,2.6,3.87,2.7,2.7,0,0,0,1.62,1c.15,0,.29.17.29.24s-.16.17-.26.2a2.9,2.9,0,0,1-1,.14,3,3,0,0,1-2.29-1.1c-.58-.78-1.44-2.1-2.12-3.2a4.35,4.35,0,0,0-.64-.81,2.67,2.67,0,0,0-1.13-.22.23.23,0,0,0-.19.19c0,.3,0,2.47,0,3.4.06.72.21.94,1,1.15.29.06.4.2.4.27s-.32.23-.44.23c-.67,0-1.09-.1-2.17-.1-.36,0-1.24.07-1.42.07s-.46-.09-.46-.25.15-.17.37-.26c.76-.23,1-.35,1.08-1s.1-2.38.1-3.5c0-2.44,0-4-.1-4.58s-.2-.66-1-.85c-.25,0-.4-.15-.4-.29s.12-.2.45-.2h1c.62,0,1.86-.08,2.77-.08a4.31,4.31,0,0,1,2.8.72,2.85,2.85,0,0,1,.95,2.08A2.8,2.8,0,0,1,196.9,119.39Zm-1.05-4a2.54,2.54,0,0,0-1.62-.64,2.85,2.85,0,0,0-.78.12c-.08,0-.18.3-.2.35-.05.61-.1,3.79-.05,4.13a.35.35,0,0,0,.25.24,4.88,4.88,0,0,0,2.07-.43,2.51,2.51,0,0,0,1.08-2.06A2.74,2.74,0,0,0,195.85,115.43Z" transform="translate(-42.52 -42.52)"/><path d="M200.69,114.27c.29,0,1.2.08,2,.08.48,0,.7,0,1.37,0,.27,0,.38.08.38.18s-.12.27-.38.32c-.59.14-.5.36-.28.8s1.42,2.4,2.16,3.63c0,.06.15,0,.18,0,.43-.62,1.69-2.69,2.12-3.42s.2-.81-.49-1c-.26-.06-.39-.22-.39-.34s.22-.15.39-.15l1.11,0c.59,0,1.64-.07,1.91-.07s.35.07.35.17-.16.24-.43.32a3.26,3.26,0,0,0-1.83,1.3c-.78,1-1.69,2.49-2.25,3.32a2.78,2.78,0,0,0-.37,1c0,1,0,3,.1,3.55.07.37.24.58,1.19.81.32.09.44.19.44.31s-.17.2-.51.2-1.17-.07-1.56-.07c-1,0-2.14.1-2.38.1s-.42-.06-.42-.18.12-.26.47-.32c.92-.21,1.08-.56,1.1-.8.05-.71,0-2.55,0-3.45a2.27,2.27,0,0,0-.16-.66c-.28-.61-1.31-2.3-2.09-3.52s-1-1.42-1.73-1.59c-.32-.07-.47-.2-.47-.32S200.4,114.27,200.69,114.27Z" transform="translate(-42.52 -42.52)"/><path d="M84.4,142.19A5.83,5.83,0,0,1,82.05,147a6.25,6.25,0,0,1-3.4,1,5.88,5.88,0,0,1-4.39-1.91,5.61,5.61,0,0,1-1.42-3.84,5.53,5.53,0,0,1,2.2-4.5,6,6,0,0,1,3.49-1.18A5.63,5.63,0,0,1,84.4,142.19Zm-8.48-4.08a5.33,5.33,0,0,0-1.29,4c0,2.52,1.79,5.4,4.43,5.4a2.75,2.75,0,0,0,2.13-.78,5.48,5.48,0,0,0,1.42-4,6.15,6.15,0,0,0-2-4.6,4.19,4.19,0,0,0-2.46-.92A3.51,3.51,0,0,0,75.92,138.11Z" transform="translate(-42.52 -42.52)"/><path d="M91.14,136.91c1.22,0,2.59,0,2.72,0a.23.23,0,0,1,.22.19c0,.49,0,1.11,0,1.69,0,.22-.08.46-.22.46s-.27-.17-.38-.53c-.26-.79-.46-1-1-1.1a25.41,25.41,0,0,0-2.56,0,.33.33,0,0,0-.27.22c-.05.44-.08,2.61-.08,3.72,0,.43.08.63.17.63.64,0,1.94,0,2.35,0s.67-.21.89-.78c.1-.24.19-.41.34-.41s.17.17.17.37-.1.78-.1,1.09c0,.74,0,1,0,1.32,0,.21-.08.42-.25.42s-.19-.12-.26-.39c-.16-.63-.38-.71-.69-.8a10.66,10.66,0,0,0-1.13-.08,13.48,13.48,0,0,0-1.4,0s-.12.14-.12.2c0,.48.05,2.71.07,3.17s.06.84,1.09,1.06c.28.05.44.17.44.31s-.16.22-.5.22-1-.05-1.62-.05-1.69.1-2.1.1-.46-.09-.46-.19.17-.27.44-.34c.88-.22.95-.59,1-.83,0-.52.12-1.72.12-5.07,0-1.59,0-2.57,0-3s-.31-.86-1-1c-.34-.09-.44-.17-.44-.3s.22-.21.47-.21c.74,0,1.39,0,1.94,0Z" transform="translate(-42.52 -42.52)"/><path d="M104.51,136.91c1.21,0,2.58,0,2.72,0a.23.23,0,0,1,.22.19,16.29,16.29,0,0,0,0,1.69c0,.22-.08.46-.22.46s-.27-.17-.39-.53c-.25-.79-.45-1-1-1.1a25.17,25.17,0,0,0-2.55,0,.32.32,0,0,0-.27.22c0,.44-.08,2.61-.08,3.72,0,.43.08.63.16.63.65,0,2,0,2.35,0s.68-.21.9-.78c.1-.24.18-.41.34-.41s.17.17.17.37-.11.78-.11,1.09c0,.74,0,1,0,1.32,0,.21-.09.42-.26.42s-.18-.12-.25-.39c-.17-.63-.39-.71-.69-.8a10.87,10.87,0,0,0-1.13-.08,13.57,13.57,0,0,0-1.41,0s-.11.14-.11.2c0,.48,0,2.71.06,3.17s.07.84,1.1,1.06c.27.05.44.17.44.31s-.17.22-.51.22-1-.05-1.62-.05-1.69.1-2.09.1-.46-.09-.46-.19.17-.27.44-.34c.88-.22,1-.59,1-.83,0-.52.12-1.72.12-5.07,0-1.59,0-2.57,0-3s-.31-.86-1-1c-.33-.09-.43-.17-.43-.3s.22-.21.47-.21c.74,0,1.38,0,1.94,0Z" transform="translate(-42.52 -42.52)"/><path d="M111.27,138.6c0-.79,0-1-1-1.21-.38-.09-.49-.21-.49-.31s.19-.22.46-.22c.44,0,1.3,0,1.86,0,.83,0,1.25,0,1.84,0,.29,0,.46.07.46.22s-.19.24-.46.29c-1,.19-1,.61-1,1.07a47,47,0,0,0-.11,4.77c0,1.15,0,2.13.05,2.67.07.93.14,1.23,1.2,1.45.31.07.46.17.46.31s-.27.22-.47.22c-.83,0-2-.1-2.52-.1s-.73,0-1.35,0c-.34,0-.46-.12-.46-.25s.16-.22.51-.29c.83-.19.9-.46,1-1.24,0-.61.09-2.36.09-3.8C111.32,141.21,111.3,139.18,111.27,138.6Z" transform="translate(-42.52 -42.52)"/><path d="M116.47,136.86c.39,0,1.32,0,2.18,0a.73.73,0,0,1,.37.22c.26.31.68.83,1.34,1.68s4.41,4.89,5.49,6.07c.1.1.17-.07.17-.12.08-.52,0-2.37,0-4.6,0-.57,0-1.2-.08-1.71,0-.35-.16-.76-1.07-1-.34-.1-.47-.22-.47-.37s.22-.17.45-.17h1.39c.64,0,1.22-.06,1.66-.06.28,0,.38.06.38.18s-.1.27-.4.34c-.74.2-1,.39-1.07,1.25,0,.59-.18,4.15-.18,6.73,0,.71.12,2,.12,2.34s-.12.35-.26.35-.62-.37-.79-.57c-.29-.37-.61-.8-1.07-1.36-1.58-1.89-4.46-5.12-6-6.93-.06-.08-.2,0-.2,0,0,.46-.07.93-.07,2.25,0,1.69-.06,4,0,4.6s.24,1,1.07,1.24c.34.08.42.2.42.3s-.22.24-.54.24c-.49,0-1.13-.08-1.74-.08l-1.2,0c-.24,0-.44,0-.44-.19s.17-.25.34-.3c.79-.25,1.13-.32,1.2-1.59.08-1.47.32-5.36.32-6.73,0-.63-.08-.8-.13-.85a1.94,1.94,0,0,0-1.39-.78c-.19,0-.37-.15-.37-.27S116.12,136.86,116.47,136.86Z" transform="translate(-42.52 -42.52)"/><path d="M130.62,136.88c.45,0,.86,0,1.35,0,.66,0,1.8,0,2.21,0s.44.07.44.19-.14.23-.37.29c-1,.22-1.08.42-1.12.66-.1.79-.12,2.5-.12,5,0,1.29.06,2.86.12,3.42a1.08,1.08,0,0,0,.59.64,8.4,8.4,0,0,0,1.56.09c.45,0,.94,0,1.21-.05a1,1,0,0,0,.63-.31,6.07,6.07,0,0,0,1-1.18c.18-.27.33-.36.42-.36s.13.19.07.46a17.43,17.43,0,0,0-.51,1.86c0,.17-.36.29-.42.29-.21,0-1.73-.1-5.17-.1-1.08,0-1.94.08-2.25.08s-.49,0-.49-.19.14-.27.41-.32c.93-.17,1.15-.49,1.23-1.16.05-.43.08-2.93.08-5.37,0-.88,0-1.94,0-2.5s-.1-.73-.9-.9c-.34-.06-.47-.18-.47-.3S130.26,136.88,130.62,136.88Z" transform="translate(-42.52 -42.52)"/><path d="M146.06,137c.15.46.44,1.24.74,2.07.9,2.5,2.15,5.8,2.44,6.52.55,1.37.84,1.51,1.57,1.71.27.07.42.15.42.27s-.14.24-.56.24-1.45-.08-2.14-.08-.87,0-1.31,0-.52-.12-.52-.22.1-.22.42-.27c.78-.15.73-.49.68-.83a24.35,24.35,0,0,0-.93-2.81c0-.07-.1-.18-.52-.18-1.12,0-2.45,0-2.79.06-.07,0-.15.11-.19.16a12,12,0,0,0-.86,2.84c0,.22.1.51.85.72.28.09.45.19.45.33s-.25.22-.49.22-.71-.05-1.33-.05-1.49.08-1.74.08-.41-.08-.41-.19.1-.25.39-.33c.85-.27,1.07-.36,1.54-1.44.4-.86,2.3-5.92,3-7.61l.15-.43a1.05,1.05,0,0,1,.12-.27c.11-.18.35-.54.47-.72s.2-.22.29-.22S145.94,136.68,146.06,137Zm.44,5.53c-.27-.83-1.12-3.28-1.29-3.58-.05-.1-.1-.1-.15,0-.3.82-1.16,3.13-1.3,3.64a.1.1,0,0,0,.1.12c.66,0,2,0,2.6,0C146.48,142.71,146.52,142.63,146.5,142.56Z" transform="translate(-42.52 -42.52)"/><path d="M152.73,136.86c.39,0,1.32,0,2.18,0a.75.75,0,0,1,.38.22c.25.31.67.83,1.33,1.68s4.41,4.89,5.49,6.07c.1.1.17-.07.17-.12.08-.52,0-2.37,0-4.6,0-.57-.05-1.2-.08-1.71,0-.35-.15-.76-1.07-1-.33-.1-.47-.22-.47-.37s.22-.17.46-.17h1.38c.64,0,1.22-.06,1.66-.06.29,0,.39.06.39.18s-.1.27-.41.34c-.74.2-1,.39-1.06,1.25-.05.59-.19,4.15-.19,6.73,0,.71.12,2,.12,2.34s-.12.35-.25.35-.63-.37-.8-.57c-.29-.37-.61-.8-1.06-1.36-1.59-1.89-4.46-5.12-6-6.93-.07-.08-.2,0-.2,0,0,.46-.07.93-.07,2.25,0,1.69-.07,4,0,4.6s.23,1,1.06,1.24c.34.08.42.2.42.3s-.22.24-.54.24c-.49,0-1.13-.08-1.74-.08l-1.2,0c-.23,0-.44,0-.44-.19s.17-.25.34-.3c.8-.25,1.13-.32,1.2-1.59.09-1.47.32-5.36.32-6.73,0-.63-.08-.8-.13-.85a1.9,1.9,0,0,0-1.39-.78c-.18,0-.37-.15-.37-.27S152.38,136.86,152.73,136.86Z" transform="translate(-42.52 -42.52)"/><path d="M176,138.4a5.53,5.53,0,0,1,1.55,3.72,5.73,5.73,0,0,1-2.68,4.87,8.17,8.17,0,0,1-4,.93c-.69,0-2.23,0-3.33-.11-.35,0-.67,0-.94,0s-.54-.12-.54-.25.17-.24.39-.26c1.13-.13,1.21-.44,1.26-1.82,0-.82.05-1.38.05-2.31s0-2.92-.08-4.26c0-1.08-.05-1.33-1.06-1.49-.19,0-.39-.13-.39-.25s.17-.24.42-.24h.56c.84,0,2.75-.13,4.15-.13A7,7,0,0,1,176,138.4Zm-6.49-1a.36.36,0,0,0-.17.22c0,.26-.07,1.66-.07,3.17v2.45c0,1.17,0,2.17.07,2.91a1.28,1.28,0,0,0,.37.78,3,3,0,0,0,1.34.44,5.09,5.09,0,0,0,3-1.09,5.42,5.42,0,0,0,1.71-4.19,5.18,5.18,0,0,0-1.72-3.81,6,6,0,0,0-3.45-1A2.51,2.51,0,0,0,169.53,137.45Z" transform="translate(-42.52 -42.52)"/><rect y="116.7" width="168.06" height="5.19"/><path d="M152.23,52.55l-4-.07a5.82,5.82,0,0,1,2.58,2.66c2.1,3.39.91,8.76-3.23,10C155.94,68.47,159.32,56.16,152.23,52.55Z" transform="translate(-42.52 -42.52)"/><path d="M105.72,65.18c-4.13-1.26-5.32-6.63-3.22-10a5.46,5.46,0,0,1,2.66-2.64l-4,0C94.06,56.1,97.33,68.49,105.72,65.18Z" transform="translate(-42.52 -42.52)"/><path d="M42.52,42.52v3.21l48.24.68a5.16,5.16,0,0,0,.81,1.81c.86,1.11,1.43,1.15,1.43,1.15h25.91a9.74,9.74,0,0,0,.28,1.24h-22v0a2.86,2.86,0,0,0,2.93,1.88h4.94a5.89,5.89,0,0,1,5.38,0h0a3.57,3.57,0,0,1,.45.27,6.42,6.42,0,0,1,1.74,1.63l.07.09c3.12,3.55,4.36,8.31,5.28,12.91.42-4.1.25-7.92,3-10.58,1.48-1.45,3.34-.06,3.59,1.93.33,1.4.29,5.42-1.62,5.4-1.21-.79-1.58-3-1.18-4.31s1.48-1.31,1.52.21c.1,1.74-.52,1.78-1,.26-.32.94.41,3.26,1.29,2.06,1.25-2.5-.7-7.15-2.86-3.25-2.86,5.87-1.79,13.18-2,19.71C117,72.6,116.7,66.08,113.66,60a1.46,1.46,0,0,1,0,.2c0-.08,0-.16,0-.24A25.1,25.1,0,0,0,111,55.83a4.51,4.51,0,0,0-7,.13c-1.71,2.57-.88,7.74,2.84,7.66,3.21-.24,4.21-7,.22-6.79-1.6.17-2.13,3.44-.13,4-.75-.2-.93-2.4.13-2.58,2.1-.35,1.57,4.2-.09,4-3.55-.36-2.8-6.12,0-6.65,5.32-.65,5.32,9.82-.06,9.6,3.1.11,5.73,1.55,6.47,4.71-2.71-3.9-9.62-5.41-12-.46-.49.69-.92,3.7.74,1.84,5.57-5.62,11.5,1.3,12.59,7.27-.91-1.28-1.64-2.69-2.59-3.93-5.41-7.3-11.9,1.51-8.71,3.56,1.17-.24,1.21-1.6,3-2,3.35-.7,5.79,2.64,6.82,5.65-1.17-.75-2-1.45-3.61-1.3a5.72,5.72,0,0,0-4,2.78c-.32.66-.69,2,.3,2.08,1.58-.07,2.38-1.74,3.91-2a4.33,4.33,0,0,1,5.43,3.21c.54,2.4.4,5.24,1.62,7.37-4.85-1.52-.48-12.25-7.82-9.61-.67.24,1,1.26,1.33,2.34a20.8,20.8,0,0,1,.55,2.8c.22,2,.58,3.33,2.11,4.54.18.13.11.26.11.26h-1.51a1.9,1.9,0,0,0-1.87,1.92V97A1.9,1.9,0,0,0,111.69,99H141.4A1.9,1.9,0,0,0,143.27,97v-.82a1.9,1.9,0,0,0-1.87-1.92h-1.51s-.06-.13.11-.26c1.53-1.21,1.9-2.58,2.11-4.54a20.8,20.8,0,0,1,.55-2.8c.32-1.08,2-2.1,1.33-2.34-7.33-2.64-3,8.09-7.81,9.61,1.22-2.13,1.08-5,1.61-7.37a4.33,4.33,0,0,1,5.44-3.21c1.52.3,2.32,2,3.9,2,1-.11.63-1.42.3-2.08a5.7,5.7,0,0,0-4-2.78c-1.63-.15-2.44.55-3.61,1.3,1-3,3.47-6.35,6.81-5.65,1.83.39,1.88,1.75,3,2,3.2-2-3.3-10.86-8.7-3.56-1,1.24-1.69,2.65-2.6,3.93,1.09-6,7-12.89,12.6-7.27,1.66,1.86,1.23-1.15.74-1.84-2.4-5-9.31-3.44-12,.46.74-3.16,3.37-4.6,6.48-4.71-5.38.22-5.38-10.25-.07-9.6,2.8.53,3.56,6.29,0,6.65-1.66.17-2.18-4.38-.08-4,1,.18.87,2.38.13,2.58,2-.55,1.46-3.82-.13-4-4-.19-3,6.55.21,6.79,3.72.08,4.56-5.09,2.85-7.66a4.51,4.51,0,0,0-7-.13c-5.6,7.18-5.6,15.3-7.74,23-.17-6.53.9-13.84-2-19.71-2.17-3.9-4.12.75-2.87,3.25.89,1.2,1.62-1.12,1.3-2.06-.45,1.52-1.08,1.48-1-.26,0-1.52,1.16-1.42,1.53-.21s0,3.52-1.19,4.31c-1.9,0-1.94-4-1.61-5.4.25-2,2.1-3.38,3.59-1.93,2.7,2.66,2.53,6.48,2.95,10.58.92-4.6,2.16-9.36,5.27-12.91a9.2,9.2,0,0,1,1.19-1.15,6,6,0,0,1,3.93-1.49,5.88,5.88,0,0,1,3,.79h4.6a3.15,3.15,0,0,0,2.92-2v0H133.9a8.28,8.28,0,0,0,.28-1.24h25.91s.58,0,1.44-1.15a5.16,5.16,0,0,0,.81-1.81l48.24-.68V42.52Zm89,3.82a1.54,1.54,0,0,1-1.16,1.2l-1.59.34h0l.87-1.4a1.72,1.72,0,0,1,.89-.68C131.07,45.63,131.52,45.87,131.5,46.34Zm-3.76.52c.11-.54.21-1.08.32-1.62a1.78,1.78,0,0,1,.6-1c.46-.36,1-.3,1.11.14A1.55,1.55,0,0,1,129.1,46c-.45.31-.9.6-1.36.9Zm.35,2.41a1.66,1.66,0,0,1-1.32,1.6c-2,.37-2.55-2.61-.7-2.76,0,.5-.66,1-.25,1.54a.78.78,0,0,0,1.35-.76c-.16-.63-1.13-1.07-.63-1.87A2.51,2.51,0,0,1,128.09,49.27Zm-1.54,6.85a7.51,7.51,0,0,0,1.51-.16,13.1,13.1,0,0,0-1.51,3.78v0A13.11,13.11,0,0,0,125,56,7.61,7.61,0,0,0,126.55,56.12Zm-.63-2.88c.2-.52.42-1,.63-1.53h0l.63,1.53a1.75,1.75,0,0,1,0,1.13c-.18.57-.63.81-1,.52A1.54,1.54,0,0,1,125.92,53.24Zm0-8.44c.2-.52.42-1,.63-1.53h0l.63,1.53a1.75,1.75,0,0,1,0,1.13c-.18.56-.63.8-1,.52A1.54,1.54,0,0,1,125.92,44.8Zm-2.59-.35c.14-.44.65-.51,1.11-.14a1.71,1.71,0,0,1,.59.95c.11.54.22,1.09.32,1.63h0c-.45-.3-.91-.59-1.36-.9A1.53,1.53,0,0,1,123.33,44.45Zm-.74,1.38a1.69,1.69,0,0,1,.88.67c.3.47.58.94.87,1.4h0c-.53-.11-1.06-.21-1.59-.34a1.51,1.51,0,0,1-1.15-1.2C121.58,45.9,122,45.66,122.59,45.83Zm-7.89,7.78-.61-1.08h6.08a4.39,4.39,0,0,0,.78,1.13ZM121,49.44c-.28-.37,0-.83.51-1a1.63,1.63,0,0,1,1.11,0l1.5.65h0l-1.5.64A1.48,1.48,0,0,1,121,49.44Zm.65,2.46a1.53,1.53,0,0,1,1.15-1.2l1.59-.34h0c-.29.47-.57.94-.87,1.4a1.66,1.66,0,0,1-.88.68C122,52.61,121.58,52.37,121.6,51.9ZM124.44,54c-.46.36-1,.3-1.11-.14a1.52,1.52,0,0,1,.66-1.54c.45-.31.91-.6,1.36-.9h0c-.1.54-.21,1.08-.32,1.63A1.71,1.71,0,0,1,124.44,54ZM116.54,83c-.71,0-.43,1.22-1.45.22-.82-.52-.25-1.55.24-2,1.75-2.15,6.19-2.55,8-.67,2.61,3.13,1.42,8.44,2.63,12.27.13.3.35.44.41.81C124,92.74,123.46,90,123.31,87a17.05,17.05,0,0,0-.3-3.6c-.28-1.55-1-1.25-1.93-.45-.93.64-3,1.43-4.12.69C116.83,83.53,116.78,83.06,116.54,83Zm4.22-6.46c.25-2.32.66-4.69,2.44-6.22,1.63-1,2.17-.6,3.35-.42,1.18-.18,1.71-.61,3.35.42,1.78,1.53,2.18,3.9,2.44,6.22a6,6,0,0,1,.07,1h-.33a4,4,0,0,1-.08-.41,4.73,4.73,0,0,0-1.43-2.69c-1-1-2.29.59-3.33-.35a3.15,3.15,0,0,0-.69-.7,3.12,3.12,0,0,0-.7.7c-1,.94-2.29-.61-3.33.35a4.72,4.72,0,0,0-1.42,2.69c0,.07,0,.26-.08.41h-.33A4.4,4.4,0,0,1,120.76,76.56Zm-1.1,11.58a12.29,12.29,0,0,0,.78,3.12,16,16,0,0,0,1.38,2.47c-1,.14-1.57-.8-2-1.43a8.72,8.72,0,0,1-1.94-5,3,3,0,0,1,0-1.11c.16-.42,1.5-.44,1.79-.1S119.6,87.64,119.66,88.14Zm17.7,6.8a13.5,13.5,0,0,1,1.58,0h0a.92.92,0,0,1,.42,1.5c-.23.21-.85.19-1.38.19h-23c-.52,0-1.15,0-1.38-.19a.92.92,0,0,1,.43-1.5h0a13.33,13.33,0,0,1,1.57,0h21.63Zm-3.86-8.81c.28-.34,1.63-.32,1.78.1a3,3,0,0,1,0,1.11,8.78,8.78,0,0,1-1.93,5c-.49.63-1,1.57-2.06,1.43a14.37,14.37,0,0,0,1.38-2.47,11.88,11.88,0,0,0,.79-3.12C133.49,87.64,133.25,86.42,133.5,86.13Zm4.27-4.91c.48.47,1.06,1.5.23,2-1,1-.74-.17-1.44-.22-.25,0-.29.51-.43.63-1.15.74-3.19-.05-4.12-.69-.94-.8-1.64-1.1-1.93.45a17.72,17.72,0,0,0-.29,3.6c-.16,3-.69,5.73-3.06,6.62,0-.37.28-.51.4-.81,1.22-3.83,0-9.14,2.63-12.27C131.57,78.67,136,79.07,137.77,81.22ZM129,65.07c2.66.65,3.59,3.25,3.63,6a.89.89,0,0,1-.36,0c-.22-1.57-.66-3.45-2.55-3.57-1.12,0-2.33.5-3.15-.46-.83,1-2,.46-3.16.46-1.89.12-2.32,2-2.55,3.57a.84.84,0,0,1-.35,0c0-2.72,1-5.32,3.62-6a5.36,5.36,0,0,1,2.44.18A5.33,5.33,0,0,1,129,65.07Zm.79-11.28c-.15.44-.65.5-1.11.14a1.78,1.78,0,0,1-.6-1c-.11-.54-.21-1.08-.32-1.62h0c.46.3.91.59,1.36.9A1.54,1.54,0,0,1,129.77,53.79Zm.74-1.38a1.75,1.75,0,0,1-.89-.67l-.87-1.4h0l1.59.34a1.53,1.53,0,0,1,1.16,1.2C131.52,52.34,131.07,52.58,130.51,52.41Zm0-2.68L129,49.08h0l1.49-.64a1.69,1.69,0,0,1,1.11,0c.56.19.79.65.51,1A1.49,1.49,0,0,1,130.52,49.73ZM139,52.67l-.6.94-6.26,0a7.38,7.38,0,0,0,.78-1Z" transform="translate(-42.52 -42.52)"/><polygon points="98.38 58.69 98.06 57.47 69.99 57.47 69.67 58.69 0 58.69 0 59.89 168.06 59.89 168.06 58.69 98.38 58.69"/><path d="M60,70.94c0-2.85-.16-3.18-2.26-3.68-.56-.14-.82-.47-.82-.78S57.5,66,58,66s1.84.1,3.28.1c2,0,2.86-.13,3.81-.13.39,0,.79.27.79.6s-.43.54-.69.6c-1.91.51-2,.88-2.1,2.59C63,71.11,63,74.77,63,77c0,3.66,0,5.54,0,6,.07,1.58.5,1.88,2.47,2.38.62.17.85.41.85.67,0,.44-.69.64-1.08.64s-2.69-.13-3.81-.13-3.09.2-3.68.2c-.43,0-.88-.24-.88-.51s.39-.6.82-.77c1.7-.6,2-.9,2.06-1.57s.23-5.63.23-8.38Z" transform="translate(-42.52 -42.52)"/><path d="M90.12,78c-.46-4.35-2.73-7.61-7.34-8.08-2.22-.37-5.65.25-6.41,2.57,3.55-2.78,8.16-1.22,9.35,3.48,1.71,5.06-2.57,12.15-7.66,8.35-3.87-3.39-3.65-10.44-2.28-14.73A17.29,17.29,0,0,1,88,58.35c-10.81.44-20.51,12.18-15.85,23,2.28,5,8.31,7.92,13.52,5.27A8.8,8.8,0,0,0,90.12,78Z" transform="translate(-42.52 -42.52)"/><path d="M188.62,65.16a11.9,11.9,0,0,0-8.21,3.64,11.49,11.49,0,0,0-3,7.77v.1h-4.78V61.47L156.4,80.31l12.72.07V96.15l3.46-2.77V80.52h5.49a11,11,0,0,0,2.54,4,11.21,11.21,0,0,0,8,3.31,11.19,11.19,0,0,0,11.3-11.41A11,11,0,0,0,188.62,65.16ZM162.46,76.6l6.46-7.53.07,7.6Zm31,7.88a5.76,5.76,0,0,1-4,1.55,7.35,7.35,0,0,1-5.94-3.14,11.46,11.46,0,0,1-2.17-6.74,10.39,10.39,0,0,1,2.44-7.3,6.82,6.82,0,0,1,4.3-2c3.9,0,7.93,3.61,7.93,9.64C196,81.28,194.36,83.55,193.42,84.48Z" transform="translate(-42.52 -42.52)"/><text x="-42.52" y="-42.52"/></svg>