<?xml version="1.0" encoding="utf-8"?>
<!-- Generator: Adobe Illustrator 24.1.0, SVG Export Plug-In . SVG Version: 6.00 Build 0)  -->
<svg version="1.1" id="Layer_1" xmlns="http://www.w3.org/2000/svg" xmlns:xlink="http://www.w3.org/1999/xlink" x="0px" y="0px"
	 viewBox="0 0 500 500" style="enable-background:new 0 0 500 500;" xml:space="preserve">
<style type="text/css">
	.st0{clip-path:url(#SVGID_2_);fill:#343260;}
	.st1{fill:#FFFFFF;}
	.st2{fill:#333361;}
</style>
<g>
	<defs>
		<rect id="SVGID_1_" width="500" height="500"/>
	</defs>
	<clipPath id="SVGID_2_">
		<use xlink:href="#SVGID_1_"  style="overflow:visible;"/>
	</clipPath>
	<path class="st0" d="M250,2.5C113.31,2.5,2.5,113.31,2.5,250S113.31,497.5,250,497.5S497.5,386.69,497.5,250S386.69,2.5,250,2.5"/>
</g>
<rect x="173.81" y="138.32" class="st1" width="190.01" height="249.51"/>
<rect x="198.96" y="169.7" class="st2" width="139.72" height="13.98"/>
<rect x="198.96" y="204.2" class="st2" width="139.72" height="13.98"/>
<rect x="198.96" y="238.71" class="st2" width="139.72" height="13.98"/>
<rect x="198.96" y="273.21" class="st2" width="139.72" height="13.98"/>
<rect x="198.96" y="307.71" class="st2" width="139.72" height="13.98"/>
<rect x="198.96" y="342.21" class="st2" width="93.15" height="13.98"/>
<polygon class="st1" points="159.83,124.33 321.54,124.33 321.54,96.32 131.53,96.32 131.53,345.83 159.83,345.83 "/>
</svg>
